<?xml version="1.0" encoding="UTF-8"?>
<svg version="1.1" xmlns="http://www.w3.org/2000/svg" width="2000" height="2000">
<path d="M0 0 C1.12493506 0.96243278 2.24961701 1.92516142 3.37419128 2.88801575 C4.00052554 3.42410367 4.6268598 3.96019159 5.27217388 4.5125246 C8.35327719 7.16502842 11.33583019 9.91898349 14.3125 12.6875 C14.96549072 13.294729 15.61848145 13.90195801 16.29125977 14.52758789 C20.98786722 18.94190142 25.35240156 23.51448505 29.55859375 28.40234375 C31.47709043 30.44362422 33.35025985 32.19684366 35.47265625 34.00390625 C42.26467319 39.85199359 48.43183684 46.37760766 54.72753906 52.74804688 C62.15558868 60.34441315 62.15558868 60.34441315 70 67.5 C76.63584473 73.14811941 82.60716179 79.55501391 88.72753906 85.74804688 C96.13891286 93.3300138 96.13891286 93.3300138 103.96875 100.46875 C110.81941656 106.29971567 116.98028405 112.92879827 123.30029297 119.32080078 C131.85110941 127.96695965 131.85110941 127.96695965 140.88085938 136.10351562 C146.75846816 141.3635692 152.18513056 147.13984381 157.72753906 152.74804688 C165.15558868 160.34441315 165.15558868 160.34441315 173 167.5 C179.63584473 173.14811941 185.60716179 179.55501391 191.72753906 185.74804688 C199.13891286 193.3300138 199.13891286 193.3300138 206.96875 200.46875 C213.81941656 206.29971567 219.98028405 212.92879827 226.30029297 219.32080078 C234.85110941 227.96695965 234.85110941 227.96695965 243.88085938 236.10351562 C249.75846816 241.3635692 255.18513056 247.13984381 260.72753906 252.74804688 C266.30853288 258.38932431 271.84808291 263.97073462 277.89453125 269.1171875 C283.56687884 274.18967644 288.80854768 279.76279938 294.15478516 285.17529297 C301.34271118 292.52176202 301.34271118 292.52176202 308.9375 299.4375 C315.79610319 305.28265714 321.96950241 311.91789381 328.30029297 318.32080078 C336.85110941 326.96695965 336.85110941 326.96695965 345.88085938 335.10351562 C351.75846816 340.3635692 357.18513056 346.13984381 362.72753906 351.74804688 C368.31373974 357.39458741 373.85857922 362.9774531 379.91259766 368.12646484 C382.66808965 370.59963976 385.26042495 373.22449363 387.85546875 375.86328125 C388.37021759 376.38590546 388.88496643 376.90852966 389.41531372 377.44699097 C391.55144161 379.61962679 393.68449304 381.7950976 395.80834961 383.97973633 C397.37978889 385.59355043 398.96057205 387.19771977 400.54296875 388.80078125 C401.01703659 389.29347 401.49110443 389.78615875 401.97953796 390.29377747 C405.85534427 394.19905366 408.86840019 395.83921719 414.37816507 396.25480902 C415.6825044 396.25708734 416.98684373 396.25936567 418.3307085 396.26171303 C419.06247841 396.26570909 419.79424832 396.26970515 420.54819307 396.27382231 C423.00744207 396.28481676 425.46646682 396.28159247 427.92573547 396.2784729 C429.7037175 396.28347461 431.48169725 396.28935004 433.25967377 396.29602563 C438.15106537 396.31185469 443.04239957 396.31525791 447.93381369 396.31667423 C453.20645707 396.32036321 458.47906879 396.33551616 463.75169373 396.34928894 C472.88875816 396.3715814 482.02581135 396.38658274 491.16289711 396.39665604 C504.37364646 396.4112309 517.58435666 396.43676437 530.79508307 396.46498732 C552.22771755 396.51047701 573.66035766 396.54708282 595.09301758 396.578125 C615.91496774 396.60830163 636.73690412 396.64264782 657.55883789 396.68261719 C658.84193237 396.68507874 660.12502685 396.68754028 661.44700298 396.69007643 C667.88380059 396.70245085 674.32059802 396.71490742 680.75739539 396.72740483 C734.1715777 396.83100522 787.5857772 396.92019772 841 397 C840.06241878 398.10367949 839.12340439 399.20614158 838.18380737 400.30810547 C837.66105162 400.92217255 837.13829586 401.53623962 836.59969902 402.16891479 C834.1822017 404.93608757 831.61021613 407.53287204 829.0078125 410.125 C828.18336136 410.95088623 828.18336136 410.95088623 827.34225464 411.79345703 C826.18886965 412.94751688 825.03424355 414.10033761 823.87841797 415.25195312 C822.13263921 416.99238419 820.39225463 418.73808003 818.65234375 420.484375 C809.36891157 429.77278454 809.36891157 429.77278454 804.9921875 433.5 C798.9819465 438.62503616 793.54783552 444.3863055 788 450 C775.36588373 462.7840973 775.36588373 462.7840973 771.03515625 466.46484375 C764.80584818 471.76669521 759.18439715 477.75041184 753.4375 483.5625 C751.06420324 485.96263895 748.68743978 488.35926858 746.30859375 490.75390625 C745.51454384 491.56040367 745.51454384 491.56040367 744.70445251 492.38319397 C742.00348294 495.10151424 739.24792233 497.67792241 736.31884766 500.15039062 C733.84965698 502.23574567 731.65451266 504.34203696 729.58984375 506.83984375 C725.78975081 511.29925547 721.71497915 515.43244648 717.5625 519.5625 C716.85029297 520.27857422 716.13808594 520.99464844 715.40429688 521.73242188 C712.12907216 525.00169704 708.83414364 528.18496787 705.30859375 531.18359375 C699.03362198 536.59246657 693.32068055 542.61301389 687.5 548.5 C674.33466737 561.81530387 674.33466737 561.81530387 668.15039062 567.07226562 C662.69878257 571.959402 657.64595685 577.29542362 652.5 582.5 C639.30562379 595.8446783 639.30562379 595.8446783 633.11914062 601.10351562 C627.8495833 605.81940518 622.96909896 610.9719123 618 616 C605.15928255 628.99315106 605.15928255 628.99315106 598.97998047 634.25585938 C594.65987493 638.06138761 590.63338615 642.18208747 586.5625 646.25 C585.19834961 647.59578125 585.19834961 647.59578125 583.80664062 648.96875 C582.94361328 649.82984375 582.08058594 650.6909375 581.19140625 651.578125 C580.01880249 652.74456543 580.01880249 652.74456543 578.82250977 653.93457031 C575.47084454 657.73297457 575.80749697 661.49734005 575.75 666.375 C575.71132812 668.33566406 575.71132812 668.33566406 575.671875 670.3359375 C576.18106612 676.02190502 578.99357712 679.24768793 582.94921875 683.1796875 C584.09874023 684.32630859 584.09874023 684.32630859 585.27148438 685.49609375 C586.06876953 686.28113281 586.86605469 687.06617188 587.6875 687.875 C588.46544922 688.65230469 589.24339844 689.42960938 590.04492188 690.23046875 C593.51918651 693.67865467 597.00926279 697.05448177 600.73828125 700.2265625 C607.64121329 706.17277991 613.89908114 712.84667035 620.30029297 719.32080078 C627.93511285 727.13816335 627.93511285 727.13816335 636 734.5 C642.84276081 740.31670797 648.99107813 746.9397153 655.30029297 753.32080078 C663.85110941 761.96695965 663.85110941 761.96695965 672.88085938 770.10351562 C678.75846816 775.3635692 684.18513056 781.13984381 689.72753906 786.74804688 C697.13891286 794.3300138 697.13891286 794.3300138 704.96875 801.46875 C711.81941656 807.29971567 717.98028405 813.92879827 724.30029297 820.32080078 C731.91837321 828.12383516 731.91837321 828.12383516 739.96875 835.46875 C747.02641293 841.46813613 753.36426638 848.31351017 759.87304688 854.89355469 C768.62377386 863.75401865 768.62377386 863.75401865 777.8671875 872.08984375 C783.94800861 877.53585386 789.56292806 883.51807939 795.30029297 889.32080078 C802.50537157 896.60058416 809.67465992 903.73507106 817.68017578 910.14648438 C836.08197145 925.14435704 842.73734966 938.75392033 847.81704712 961.60108948 C849.71929731 970.08228815 851.97196139 978.45012214 854.3046875 986.8203125 C854.49945805 987.51973906 854.69422859 988.21916561 854.89490128 988.93978691 C855.70120182 991.83298344 856.50872695 994.72583329 857.31818581 997.61814785 C859.42498607 1005.14771435 861.49612911 1012.68695529 863.56482315 1020.22706413 C864.59534754 1023.98228702 865.62776796 1027.7369884 866.66015625 1031.49169922 C866.85943789 1032.21656619 867.05871952 1032.94143316 867.26403999 1033.6882658 C870.39786206 1045.08586472 873.54284384 1056.48038658 876.6875 1067.875 C877.32561942 1070.18773939 877.96372136 1072.50048361 878.60180664 1074.81323242 C881.62580001 1085.77341331 884.65041081 1096.73342375 887.67529297 1107.69335938 C890.40195705 1117.57282448 893.12825548 1127.45239045 895.85432434 1137.33201981 C896.6232685 1140.11872494 897.39226014 1142.90541698 898.16125488 1145.69210815 C903.82160463 1166.20484401 909.47559679 1186.71930352 915.11328125 1207.23828125 C915.61167116 1209.05198239 916.11006388 1210.86568275 916.60845947 1212.67938232 C918.72436351 1220.37981757 920.83977994 1228.08038507 922.95259094 1235.78166962 C923.81029366 1238.90721972 924.66893048 1242.03251292 925.52759552 1245.15779877 C926.14370646 1247.40213036 926.75827419 1249.64688059 927.3727417 1251.8916626 C929.41709407 1259.3458269 931.50545781 1266.78459966 933.66064453 1274.20751953 C934.29924395 1276.42135727 934.93725048 1278.6353653 935.57522774 1280.8493824 C936.17529582 1282.91714174 936.7875358 1284.98102556 937.40037537 1287.04502869 C937.75753128 1288.28321854 938.11468719 1289.52140839 938.48266602 1290.79711914 C938.96002953 1292.41971397 938.96002953 1292.41971397 939.44703674 1294.0750885 C940.52416796 1299.77259812 938.42375718 1303.41204317 935.61328125 1308.296875 C935.27378952 1308.88994446 934.93429779 1309.48301392 934.58451843 1310.09405518 C933.86572244 1311.34650757 933.14354739 1312.59702601 932.41821289 1313.84570312 C931.32637201 1315.72610914 930.24532577 1317.61237961 929.16601562 1319.5 C925.76547329 1325.41891187 922.25745363 1331.21612156 918.40991211 1336.85839844 C915.7719162 1340.86541144 913.47034971 1345.06745328 911.125 1349.25 C907.26184717 1356.07523903 903.3222478 1362.81443328 899.171875 1369.46875 C896.31330435 1374.08181622 893.5691542 1378.76310284 890.8125 1383.4375 C890.26062012 1384.37319824 889.70874023 1385.30889648 889.14013672 1386.27294922 C887.42586123 1389.1814391 885.7127239 1392.09059619 884 1395 C871.35996433 1416.47162644 871.35996433 1416.47162644 867.0625 1423.375 C862.77391369 1430.28339218 858.71751414 1437.32425208 854.6340332 1444.35522461 C849.61262769 1452.9857029 844.49183037 1461.55352385 839.34130859 1470.10742188 C835.30587963 1476.81231198 831.3163069 1483.54162487 827.36547852 1490.29663086 C824.86143128 1494.56711953 822.29558433 1498.79216135 819.6875 1503 C811.82379112 1514.48027017 811.82379112 1514.48027017 810.6875 1527.75 C812.19506816 1531.48302592 812.59226755 1531.42373034 816 1533 C817.56610107 1534.33232117 817.56610107 1534.33232117 819.08105469 1535.86987305 C819.65555359 1536.4477507 820.23005249 1537.02562836 820.82196045 1537.62101746 C821.43243225 1538.24494888 822.04290405 1538.86888031 822.671875 1539.51171875 C823.31312317 1540.15816849 823.95437134 1540.80461823 824.61505127 1541.47065735 C826.66484762 1543.53824026 828.70785445 1545.61236224 830.75 1547.6875 C832.77866262 1549.74396246 834.8088256 1551.79888319 836.84210205 1553.8507843 C838.10502666 1555.12576559 839.3652734 1556.40340754 840.62225342 1557.68424988 C844.30041017 1561.40332201 848.1161476 1564.88206645 852.07427979 1568.30036926 C854.97580609 1570.86124142 857.69233835 1573.58687625 860.40625 1576.34375 C860.97525024 1576.91653687 861.54425049 1577.48932373 862.13049316 1578.07946777 C864.52432686 1580.48939282 866.91204243 1582.90534478 869.30029297 1585.32080078 C877.85110941 1593.96695965 877.85110941 1593.96695965 886.88085938 1602.10351562 C892.75846816 1607.3635692 898.18513056 1613.13984381 903.72753906 1618.74804688 C927.66502783 1642.94409863 928.71479146 1640.01553894 974 1641 C974 1692.15 974 1743.3 974 1796 C955.499375 1796.28875 936.99875 1796.5775 917.9375 1796.875 C912.1224585 1797.00245605 906.30741699 1797.12991211 900.31616211 1797.26123047 C893.14758301 1797.32446289 893.14758301 1797.32446289 889.77857971 1797.33621216 C887.45385587 1797.35754038 885.12927523 1797.40642963 882.80555725 1797.47805786 C861.16173656 1798.11115916 861.16173656 1798.11115916 853.16202641 1791.20655251 C850.78637127 1788.85112687 848.60269288 1786.40515897 846.49990082 1783.80430031 C844.0618147 1780.87141336 841.30468184 1778.27730355 838.56640625 1775.62890625 C837.55546123 1774.61509863 836.54667073 1773.59913333 835.54101562 1772.58007812 C835.05028564 1772.0832251 834.55955566 1771.58637207 834.05395508 1771.07446289 C833.5617749 1770.57551514 833.06959473 1770.07656738 832.5625 1769.5625 C825.09022933 1761.89300173 825.09022933 1761.89300173 817.18359375 1754.68359375 C809.88087476 1748.44540559 803.30453824 1741.35517579 796.55419922 1734.53369141 C788.52308334 1726.28812145 788.52308334 1726.28812145 780.03125 1718.53125 C772.55900229 1712.19625757 765.86743276 1704.91688418 758.98144531 1697.9609375 C749.53437302 1688.35534046 749.53437302 1688.35534046 739.54833984 1679.32128906 C737.3554132 1677.44993634 735.33319396 1675.42930994 733.3125 1673.375 C732.60738281 1672.66085937 731.90226563 1671.94671875 731.17578125 1671.2109375 C730.45777344 1670.48132812 729.73976563 1669.75171875 729 1669 C728.26394531 1668.26394531 727.52789063 1667.52789063 726.76953125 1666.76953125 C724.47320148 1664.47320148 722.18452928 1662.16978226 719.8984375 1659.86328125 C718.39068077 1658.34629873 716.88286694 1656.82937297 715.375 1655.3125 C714.611875 1654.54099609 713.84875 1653.76949219 713.0625 1652.97460938 C712.32773437 1652.23662109 711.59296875 1651.49863281 710.8359375 1650.73828125 C709.83892822 1649.73341675 709.83892822 1649.73341675 708.82177734 1648.70825195 C706.90796981 1646.81984408 706.90796981 1646.81984408 704 1645 C704 1644.34 704 1643.68 704 1643 C703.01 1642.67 702.02 1642.34 701 1642 C699.59765625 1640.5390625 699.59765625 1640.5390625 698.0625 1638.625 C695.11185777 1635.12262478 691.95321137 1632.06204554 688.54296875 1629.0078125 C681.88190002 1622.97931754 675.56057382 1616.64130611 669.25 1610.25 C667.11245155 1608.08546717 664.97131551 1605.92456995 662.828125 1603.765625 C662.36021545 1603.28941711 661.89230591 1602.81320923 661.41021729 1602.3225708 C656.03304602 1596.90688549 650.54271838 1591.98613052 644.14345264 1587.79419231 C634.28556919 1581.15395182 624.3698695 1572.81392491 621.17340851 1560.92577362 C619.63200679 1552.3288816 619.41418841 1543.66483567 619.42578125 1534.94921875 C619.42710375 1533.9541027 619.42710375 1533.9541027 619.42845297 1532.9388833 C619.46187456 1524.64093937 619.72182548 1516.3552387 620.06222618 1508.06485951 C620.52133636 1496.81803789 620.73571832 1485.56436949 620.92364186 1474.31019336 C621.00557895 1469.7519006 621.17324019 1465.20167096 621.36628723 1460.64689636 C621.82500943 1447.02539472 621.54049206 1437.95262785 613 1427 C611.85979498 1425.10765133 610.74088693 1423.20208105 609.65625 1421.27734375 C608.60548459 1419.4966175 607.55339664 1417.716671 606.5 1415.9375 C605.93522949 1414.98198242 605.37045898 1414.02646484 604.78857422 1413.04199219 C601.94801886 1408.24718036 599.07827444 1403.47652875 596.125 1398.75 C592.12829223 1392.32309069 588.389301 1385.75254848 584.625 1379.1875 C580.08053742 1371.26400779 575.47150468 1363.41288693 570.5690918 1355.70605469 C566.88870687 1349.89516217 563.45644518 1343.95087079 560.02978516 1337.98779297 C557.27325004 1333.19276272 554.48302813 1328.42272554 551.625 1323.6875 C547.96667291 1317.62366356 544.35037441 1311.53593038 540.75 1305.4375 C540.20206787 1304.50969727 539.65413574 1303.58189453 539.08959961 1302.62597656 C536.24308595 1297.80440698 533.399684 1292.98101707 530.55859375 1288.15625 C523.9386332 1276.89470729 523.9386332 1276.89470729 517.125 1265.75 C513.12829223 1259.32309069 509.389301 1252.75254848 505.625 1246.1875 C501.08053742 1238.26400779 496.47150468 1230.41288693 491.5690918 1222.70605469 C487.88870687 1216.89516217 484.45644518 1210.95087079 481.02978516 1204.98779297 C478.27325004 1200.19276272 475.48302813 1195.42272554 472.625 1190.6875 C468.96667322 1184.62366406 465.35032189 1178.53596098 461.75 1172.4375 C461.19916748 1171.50462158 460.64833496 1170.57174316 460.08081055 1169.6105957 C457.8333846 1165.8032798 455.58693563 1161.99538892 453.34130859 1158.18701172 C451.70727463 1155.41600497 450.0726252 1152.64536296 448.4375 1149.875 C447.90261963 1148.9687085 447.36773926 1148.06241699 446.81665039 1147.12866211 C442.6847741 1140.13716982 438.51455085 1133.16921303 434.30834961 1126.22216797 C433.40296228 1124.72104976 432.51586201 1123.20874759 431.64752579 1121.68589687 C430.04681104 1118.95358418 430.04681104 1118.95358418 427.99491501 1116.48320866 C419.62555375 1104.79773502 420.89729104 1091.6584607 421.04556823 1077.83185065 C421.07627983 1074.13391657 421.06016835 1070.4361348 421.04985046 1066.73812866 C421.03812397 1060.34459901 421.05494742 1053.951671 421.09122467 1047.55824089 C421.14330995 1038.30928166 421.14705689 1029.06077633 421.13860282 1019.81169695 C421.12580318 1004.79534357 421.14559837 989.77922972 421.18896484 974.76293945 C421.19154748 973.86601175 421.19413012 972.96908405 421.19679102 972.04497672 C421.19937872 971.14689482 421.20196641 970.24881293 421.20463252 969.32351643 C421.24130441 956.5702593 421.27013179 943.81701633 421.28955078 931.0637207 C421.29092719 930.16516619 421.29230359 929.26661167 421.29372171 928.34082823 C421.31600085 913.36656554 421.32214828 898.39232106 421.32002425 883.4180432 C421.31975971 874.18881183 421.33604244 864.95987089 421.37374249 855.73071487 C421.39889296 849.41542751 421.41061757 843.10021252 421.41173014 836.78487539 C421.41296074 833.14056792 421.42098197 829.49658645 421.4465313 825.85236168 C421.47413536 821.90485863 421.47109969 817.95771939 421.46514893 814.01011658 C421.48497499 812.2778514 421.48497499 812.2778514 421.50520158 810.51059097 C421.47797621 806.09371827 421.38002291 802.83432423 419.53623962 798.786376 C415.74456636 796.11574739 412.49334822 796.32692344 407.95501709 796.40786743 C407.03027753 796.40445072 406.10553797 796.401034 405.152776 796.39751375 C402.04633668 796.39194734 398.94124889 796.42200204 395.83496094 796.45166016 C393.61092821 796.45466701 391.38689137 796.45537952 389.16285706 796.45396423 C384.36912662 796.45533779 379.57577475 796.47199952 374.78212738 796.50011063 C367.20162698 796.54345503 359.62143686 796.54684405 352.04083252 796.54354858 C341.41144483 796.54235488 330.78218019 796.55358564 320.15283203 796.58007812 C319.47832297 796.58175119 318.8038139 796.58342426 318.10886517 796.58514802 C310.58747713 796.60413916 303.06610564 796.62673679 295.54473877 796.652771 C292.81937685 796.66213532 290.09401473 796.67143733 287.36865234 796.68066406 C286.69617847 796.68294851 286.02370459 796.68523295 285.33085272 796.68758662 C274.1073781 796.72494732 262.88405291 796.73474277 251.66050744 796.72430074 C244.12568805 796.71902183 236.5919009 796.74624598 229.05726671 796.79787087 C224.3663439 796.82287244 219.67577548 796.81880133 214.9848156 796.80668831 C212.8111836 796.80697833 210.63751465 796.81927091 208.46402931 796.84452248 C205.49263653 796.87735769 202.52434925 796.8669632 199.55291748 796.84609985 C198.2670964 796.87596416 198.2670964 796.87596416 196.95529914 796.90643179 C190.01447239 796.78268988 186.7076493 793.86799911 182 789 C181.17838379 788.28279785 180.35676758 787.5655957 179.51025391 786.82666016 C172.15774804 780.31234994 165.27746612 773.35724146 158.375 766.375 C148.79219148 756.62157951 148.79219148 756.62157951 138.66796875 747.44091797 C136.0836058 745.20834915 133.71165479 742.80567653 131.3125 740.375 C130.42175781 739.47523438 129.53101563 738.57546875 128.61328125 737.6484375 C127.75089844 736.77445313 126.88851562 735.90046875 126 735 C124.80890625 733.80890625 124.80890625 733.80890625 123.59375 732.59375 C121.63328883 730.63328883 119.67977331 728.66680975 117.73046875 726.6953125 C110.45580818 719.27444384 110.45580818 719.27444384 102.75 712.3125 C98.6540464 708.85544515 95.20185203 704.8805057 91.6875 700.84375 C89.66925093 698.70816087 87.72332768 696.86114212 85.5 694.96875 C78.71528929 689.13237128 72.55886182 682.61298059 66.27246094 676.25195312 C60.6088168 670.52713262 54.98731529 664.84700321 48.85058594 659.62353516 C45.27438444 656.48610244 41.96702975 653.07028621 38.625 649.6875 C37.91472656 648.97271484 37.20445313 648.25792969 36.47265625 647.52148438 C35.17021416 646.21039229 33.86881031 644.89826731 32.56884766 643.5847168 C31.38259862 642.38646867 30.19226368 641.19226368 29 640 C30.06677476 639.99853479 30.06677476 639.99853479 31.15510052 639.99703997 C73.28347187 639.93879789 115.41179099 639.86502386 157.54009844 639.77101372 C162.59582384 639.75974524 167.65154952 639.74860683 172.70727539 639.73754883 C173.71380102 639.73534514 174.72032664 639.73314146 175.75735305 639.730871 C192.06578015 639.69547578 208.37420721 639.67062421 224.68265852 639.64965298 C241.41028703 639.62790864 258.13786559 639.59487126 274.86545163 639.55129844 C285.19150478 639.52475815 295.51749566 639.5070803 305.84358124 639.50065396 C312.91966522 639.49540734 319.99567077 639.47921488 327.07171275 639.45433434 C331.15733304 639.44029438 335.24281286 639.43115781 339.32845879 639.43499184 C343.06731214 639.43839413 346.80586511 639.42808346 350.54465691 639.40676448 C352.54117524 639.39897602 354.53773421 639.40595318 356.53425378 639.41341704 C357.71811333 639.4039605 358.90197288 639.39450396 360.12170696 639.38476086 C361.65444808 639.38191295 361.65444808 639.38191295 363.21815366 639.37900752 C367.75000369 638.76157398 370.91035702 636.29732171 374.1796875 633.234375 C374.7675 632.68523438 375.3553125 632.13609375 375.9609375 631.5703125 C376.59257812 630.96960938 377.22421875 630.36890625 377.875 629.75 C378.55046875 629.11320313 379.2259375 628.47640625 379.921875 627.8203125 C387.40577336 620.70927741 394.67717913 613.38050869 401.92919922 606.03417969 C405.83394141 602.0882181 409.72053034 598.16192074 413.94140625 594.55078125 C419.00676293 590.21661353 423.67418636 585.47549703 428.37524414 580.75512695 C429.95539644 579.16954204 431.54091976 577.58946558 433.12695312 576.00976562 C434.13573806 575.00032108 435.14421338 573.99056701 436.15234375 572.98046875 C437.05976318 572.07192139 437.96718262 571.16337402 438.90209961 570.22729492 C441.54790345 567.4183029 441.946548 566.56659117 442.3125 562.6875 C441.95018869 558.41222654 441.03853708 556.95172173 438 554 C434.13478097 552.71159366 430.57858694 553.00185538 426.56323242 553.14379883 C424.77470776 553.19655453 422.98614636 553.24807506 421.19755554 553.29853821 C420.24704504 553.32591883 419.29653454 553.35329945 418.31722069 553.38150978 C412.18175736 553.53795746 406.04451621 553.59806769 399.90754223 553.66658497 C394.53556693 553.73178253 389.17043268 553.83610488 383.80151367 554.03198242 C344.71619235 555.40817854 344.71619235 555.40817854 333.81621647 545.80774593 C329.67871092 541.80642656 326.23964869 537.29159488 322.93728638 532.58615112 C320.57027578 529.42634616 317.91432727 527.05105616 314.87834167 524.55378723 C311.92614142 522.11169104 309.27920701 519.38421866 306.59375 516.65625 C306.02474976 516.08346313 305.45574951 515.51067627 304.86950684 514.92053223 C302.47567314 512.51060718 300.08795757 510.09465522 297.69970703 507.67919922 C290.06488715 499.86183665 290.06488715 499.86183665 282 492.5 C275.15723919 486.68329203 269.00892187 480.0602847 262.69970703 473.67919922 C255.06488715 465.86183665 255.06488715 465.86183665 247 458.5 C240.15723919 452.68329203 234.00892187 446.0602847 227.69970703 439.67919922 C220.06488715 431.86183665 220.06488715 431.86183665 212 424.5 C205.15723919 418.68329203 199.00892187 412.0602847 192.69970703 405.67919922 C185.06488715 397.86183665 185.06488715 397.86183665 177 390.5 C170.15723919 384.68329203 164.00892187 378.0602847 157.69970703 371.67919922 C150.08162679 363.87616484 150.08162679 363.87616484 142.03125 356.53125 C134.97358707 350.53186387 128.63573362 343.68648983 122.12695312 337.10644531 C114.2854872 329.06795589 114.2854872 329.06795589 106 321.5 C98.95012579 315.51510679 92.62489099 308.67552848 86.12695312 302.10644531 C78.2854872 294.06795589 78.2854872 294.06795589 70 286.5 C62.95012579 280.51510679 56.62489099 273.67552848 50.12695312 267.10644531 C41.23984715 258.10163403 41.23984715 258.10163403 31.8515625 249.62890625 C27.23455563 245.56710907 23.01998321 241.05445391 18.7109375 236.671875 C14.55175471 232.46981404 10.33215644 228.43296302 5.82421875 224.60546875 C5.22222656 224.07566406 4.62023437 223.54585937 4 223 C3.31229649 222.48828625 2.62459297 221.97657249 1.91604996 221.44935226 C-0.85568611 217.90614715 -0.54078993 214.51651305 -0.48101807 210.20489502 C-0.48443577 209.30717935 -0.48785347 208.40946369 -0.49137473 207.48454452 C-0.49797432 204.47016792 -0.47594307 201.45667766 -0.45410156 198.44238281 C-0.45297354 196.28418499 -0.45360607 194.12598563 -0.45587158 191.9677887 C-0.4570214 186.10237625 -0.43346856 180.2372896 -0.40557575 174.37195301 C-0.38060677 168.24470982 -0.37822365 162.11745955 -0.37347412 155.99017334 C-0.36103112 144.38442187 -0.32819148 132.77882073 -0.28807616 121.17313552 C-0.24339974 107.96170709 -0.22138179 94.75027155 -0.20129442 81.53878641 C-0.15946009 54.35910753 -0.08908221 27.17956218 0 0 Z M583 921 C581.95954772 924.12135684 581.86156569 926.3193664 581.83937073 929.59495544 C581.8293251 930.75971909 581.81927948 931.92448273 581.80892944 933.12454224 C581.80309845 934.40400726 581.79726746 935.68347229 581.79125977 937.00170898 C581.78171921 938.36197652 581.77182796 939.72224164 581.76161194 941.08250427 C581.73023196 945.55367151 581.70995183 950.02485725 581.69140625 954.49609375 C581.68810893 955.25801568 581.68481161 956.01993762 581.68141437 956.80494809 C581.65061911 963.99856434 581.62392484 971.1921849 581.60699558 978.38584805 C581.58513013 987.56803071 581.5432529 996.74962557 581.47355801 1005.93157333 C581.42616149 1012.39715715 581.40204078 1018.86258334 581.3947987 1025.32833534 C581.38986341 1029.18434312 581.37498923 1033.03968842 581.3350544 1036.89550591 C581.29789903 1040.53109189 581.28987098 1044.16564512 581.30306053 1047.80138588 C581.30298178 1049.752929 581.27331391 1051.70440289 581.24237061 1053.65570068 C581.31404959 1062.45657711 583.50439873 1068.48488159 588 1076 C588.8314308 1077.47746997 589.66230899 1078.95525132 590.4921875 1080.43359375 C591.28204748 1081.77084431 592.07634312 1083.10548459 592.875 1084.4375 C593.3071582 1085.16573975 593.73931641 1085.89397949 594.18457031 1086.64428711 C596.66444482 1090.81020175 599.19131309 1094.94444167 601.75 1099.0625 C605.62260763 1105.3043249 609.3106487 1111.64846012 613 1118 C617.21359174 1125.25333808 621.47096445 1132.45983564 625.90234375 1139.58203125 C632.94331792 1150.97687829 639.61475821 1162.60856566 646.34521484 1174.18823242 C651.40595296 1182.89422923 656.52102835 1191.5537249 661.81030273 1200.12280273 C666.34101914 1207.49216012 670.67084096 1214.97625305 675.01293945 1222.45776367 C678.59022661 1228.61219902 682.2454918 1234.69780163 686.01171875 1240.73828125 C688.57993133 1244.95136083 691.03939168 1249.22343689 693.5 1253.5 C697.15945741 1259.85887389 700.90389648 1266.1458091 704.78125 1272.375 C707.72294369 1277.1414285 710.53655957 1281.98420395 713.375 1286.8125 C719.38499384 1297.0002094 719.38499384 1297.0002094 725.5 1307.125 C725.88462402 1307.76928955 726.26924805 1308.4135791 726.66552734 1309.07739258 C728.98910168 1312.8373121 731.28452362 1315.57993535 735 1318 C740.07383953 1318.72483422 741.68435001 1318.91016527 745.953125 1315.95703125 C749.46100875 1312.85133929 751.57082838 1309.19417651 753.8125 1305.125 C754.67077708 1303.61005454 755.53017651 1302.09574446 756.390625 1300.58203125 C757.03547852 1299.43855225 757.03547852 1299.43855225 757.69335938 1298.27197266 C758.9576652 1296.07361129 760.26896186 1293.91436565 761.609375 1291.76171875 C762.0221167 1291.09575684 762.4348584 1290.42979492 762.86010742 1289.74365234 C763.64000366 1288.49106772 764.4262648 1287.24241511 765.2199707 1285.99853516 C768.22238479 1281.12503147 769.42803134 1277.35425844 768.39282227 1271.66040039 C768.03760498 1270.40219482 767.6823877 1269.14398926 767.31640625 1267.84765625 C767.11430542 1267.11753326 766.91220459 1266.38741028 766.70397949 1265.63516235 C766.00148682 1263.10763152 765.2815973 1260.58535308 764.5625 1258.0625 C764.04027637 1256.1947828 763.5194231 1254.32668204 762.99975586 1252.45825195 C761.762885 1248.01593359 760.51944917 1243.57550487 759.2734375 1239.13574219 C756.58934056 1229.5598517 753.95217548 1219.97102261 751.3125 1210.3828125 C750.80289311 1208.53209771 750.29328003 1206.68138463 749.78366089 1204.83067322 C749.00399365 1201.99921051 748.22433955 1199.16774419 747.44476128 1196.33625698 C744.53336377 1185.7631319 741.61469069 1175.19201755 738.6953125 1164.62109375 C738.43971684 1163.6955475 738.18412117 1162.77000126 737.92078018 1161.81640816 C736.48585603 1156.6204099 735.05076826 1151.42445686 733.61555481 1146.22853851 C733.05726512 1144.20732114 732.49902753 1142.18608937 731.9407959 1140.16485596 C731.08302863 1137.05909448 730.22515077 1133.95336359 729.3671875 1130.84765625 C729.11301056 1129.92747711 728.85883362 1129.00729797 728.59695435 1128.05923462 C727.41379258 1123.77735989 726.22864186 1119.49605244 725.03955078 1115.21582031 C722.18895605 1104.94886096 719.36240462 1094.67560282 716.55709743 1084.39618492 C714.48246626 1076.79563933 712.39982068 1069.19731174 710.31298923 1061.60010719 C708.99796682 1056.81094576 707.6870118 1052.02074877 706.38546753 1047.22790527 C705.15530044 1042.69811385 703.91484732 1038.17126134 702.66688538 1033.64634132 C702.2030156 1031.95715095 701.74294154 1030.26691312 701.28688049 1028.57559776 C700.65439885 1026.23230322 700.0084059 1023.89313152 699.35913086 1021.55444336 C699.17883552 1020.87362324 698.99854017 1020.19280312 698.81278133 1019.49135208 C697.2099498 1013.81147377 694.45414724 1009.18373559 690.265625 1005.03515625 C689.77320313 1004.54466797 689.28078125 1004.05417969 688.7734375 1003.54882812 C688.27070312 1003.05833984 687.76796875 1002.56785156 687.25 1002.0625 C686.76273438 1001.57587891 686.27546875 1001.08925781 685.7734375 1000.58789062 C683.07661195 997.92250475 680.30824015 995.39215294 677.421875 992.93359375 C670.68194461 987.08958877 664.53890941 980.59279132 658.27246094 974.25195312 C650.84441132 966.65558685 650.84441132 966.65558685 643 959.5 C636.36415527 953.85188059 630.39283821 947.44498609 624.27246094 941.25195312 C615.70113436 932.55560818 615.70113436 932.55560818 606.61645508 924.40380859 C604.87605237 922.89235782 603.2878256 921.28325045 601.6875 919.625 C598.54962703 916.56010082 596.98946832 916.11201528 592.6875 915.625 C587.77452721 916.12462435 586.41116915 917.50761253 583 921 Z " fill="#FFFFFF" transform="translate(26,102)"/>
<path d="M0 0 C0.68908576 -0.00701159 1.37817152 -0.01402317 2.08813867 -0.02124723 C4.40734812 -0.03870747 6.72490332 -0.02043755 9.04408932 -0.00245988 C10.72655275 -0.00767391 12.40901058 -0.01507893 14.09145582 -0.02448171 C18.73975448 -0.04404029 23.38753732 -0.03225686 28.03582804 -0.01559195 C33.08327052 -0.00295523 38.13063138 -0.01918932 43.17806244 -0.03180861 C52.03257853 -0.04990805 60.88694235 -0.04929424 69.74146557 -0.03657281 C82.90813664 -0.01770721 96.07467859 -0.02730461 109.24134871 -0.04261435 C131.38889181 -0.06745393 153.53638875 -0.06832508 175.68393612 -0.05473077 C176.69607821 -0.05410981 176.69607821 -0.05410981 177.72866761 -0.0534763 C178.7424234 -0.05285432 178.7424234 -0.05285432 179.7766591 -0.05221979 C200.35181742 -0.03961275 220.92695101 -0.03634278 241.50211239 -0.04233301 C242.87897694 -0.0427204 244.2558415 -0.04310618 245.63270605 -0.04349036 C251.16550944 -0.04504264 256.69831282 -0.04663597 262.23111618 -0.04828918 C277.69837571 -0.05287461 293.16563533 -0.05572733 308.63289547 -0.05721986 C309.68948079 -0.05732221 309.68948079 -0.05732221 310.76741126 -0.05742662 C333.21825312 -0.05947354 355.66908635 -0.0538358 378.1199255 -0.04297197 C379.21246699 -0.0424451 379.21246699 -0.0424451 380.32708003 -0.04190759 C392.15580016 -0.03618259 403.9845201 -0.0300854 415.81324002 -0.02395672 C462.72972681 0.00032568 509.64614227 -0.00080136 556.56262875 -0.02510965 C568.38532663 -0.03121541 580.20802453 -0.03727059 592.03072262 -0.04297197 C592.75865177 -0.04332421 593.48658092 -0.04367645 594.23656853 -0.04403937 C616.66363104 -0.05481743 639.09068762 -0.0593922 661.51775265 -0.05721986 C662.22162809 -0.05715194 662.92550353 -0.05708402 663.65070853 -0.05701404 C679.10067513 -0.05545177 694.5506411 -0.05228381 710.00060708 -0.04766735 C715.5285164 -0.04602158 721.05642576 -0.04445619 726.58433511 -0.04291379 C727.9595828 -0.04252685 729.33483048 -0.0421332 730.71007815 -0.04173281 C751.28072271 -0.03576047 771.85133942 -0.04085554 792.4219805 -0.0534763 C793.0967419 -0.05389027 793.77150329 -0.05430425 794.466712 -0.05473077 C795.14023311 -0.05514418 795.81375422 -0.0555576 796.50768506 -0.05598354 C819.2039639 -0.06976231 841.90018636 -0.06471747 864.59645772 -0.03832705 C877.69069069 -0.02360513 890.7847536 -0.02274526 903.87898229 -0.04155793 C912.61344848 -0.05272632 921.34777763 -0.04587143 930.08222343 -0.02403408 C935.06685013 -0.01208164 940.05113769 -0.0081933 945.03575432 -0.02606399 C949.56461991 -0.04213604 954.09284344 -0.03547116 958.62166162 -0.01016069 C960.25539169 -0.00509769 961.88917412 -0.00852649 963.52286296 -0.02119038 C965.73291227 -0.03711514 967.94070493 -0.02248661 970.15064812 0 C971.98961943 0.00050819 971.98961943 0.00050819 973.86574167 0.00102665 C978.02916046 0.81269952 979.51459748 2.29994973 982.07532406 5.62674582 C982.70104323 7.80510134 982.70104323 7.80510134 982.70206988 10.03790629 C982.71458747 10.89644461 982.72710506 11.75498294 982.74000198 12.63953757 C982.72829615 13.57474577 982.71659032 14.50995396 982.70452976 15.4735018 C982.71179697 16.47729026 982.71906417 17.48107872 982.72655159 18.51528502 C982.74489117 21.90022652 982.72740368 25.28404771 982.71024227 28.66898215 C982.71599988 31.1116217 982.72393855 33.55425692 982.73387849 35.99688303 C982.75044399 41.31861345 982.75137781 46.6400093 982.73864269 51.96172583 C982.71975685 59.87513358 982.72938494 67.78832685 982.74468423 75.70173308 C982.77103817 89.83367303 982.768721 103.96550009 982.75428967 118.09745082 C982.74172243 130.46437516 982.73842344 142.83125806 982.74440289 155.19818747 C982.74497577 156.42765943 982.74497577 156.42765943 982.74556024 157.6819692 C982.74711687 161.00900926 982.74870887 164.33604929 982.75035905 167.66308929 C982.7656614 198.88687464 982.75177513 230.11058799 982.72487457 261.33436222 C982.70114571 289.08778647 982.70326881 316.84109601 982.72717953 344.59451926 C982.75394033 375.7604126 982.76457626 406.92624232 982.74911821 438.09214556 C982.74751457 441.41319842 982.74595037 444.73425129 982.74440289 448.05530417 C982.7440075 448.87305964 982.74361211 449.6908151 982.74320474 450.53335104 C982.73751226 462.89389663 982.74417826 475.25439629 982.75680065 487.61493552 C982.77107811 501.66644649 982.76756321 515.7178267 982.74039693 529.76932132 C982.72568693 537.63795466 982.72479782 545.50630501 982.7436278 553.37493116 C982.75612011 559.24106417 982.74262626 565.10694568 982.71875493 570.97305012 C982.71314466 573.35318467 982.71606686 575.73335688 982.72813387 578.11346745 C982.74322634 581.33619136 982.72786096 584.55734927 982.70452976 587.77998984 C982.71623559 588.71519803 982.72794142 589.65040623 982.74000198 590.61395407 C982.67725039 594.91786809 982.45889705 597.0572839 980.00441295 600.70127147 C976.44578973 603.04057833 973.70854153 603.33544701 969.58069611 603.28109133 C968.83117169 603.2910549 968.08164728 603.30101848 967.30941001 603.31128398 C964.78927414 603.33862853 962.27051926 603.33033053 959.75026608 603.32222617 C957.92862673 603.33442887 956.10700074 603.34878219 954.28539366 603.36510509 C949.27274165 603.40352603 944.26045922 603.41052712 939.24767816 603.41230059 C933.84381173 603.41949734 928.44012103 603.45520223 923.03635311 603.48689902 C911.21585465 603.55052512 899.39545197 603.57649806 887.57480836 603.59475744 C880.19300374 603.60630046 872.8112319 603.62553458 865.42944813 603.64627135 C844.98963367 603.70242354 824.5498473 603.74972001 804.10995483 603.76277316 C802.80150052 603.76361942 801.49304621 603.76446569 800.14494177 603.76533761 C797.49237883 603.7670282 794.83981589 603.76871797 792.18725295 603.77040692 C790.87051905 603.77125804 789.55378515 603.77210915 788.19715023 603.77298605 C786.87880774 603.77383089 785.56046525 603.77467573 784.20217299 603.77554617 C762.84940336 603.79092552 741.49749219 603.87028036 720.14498992 603.97756251 C698.22022922 604.08683255 676.2958485 604.14353791 654.37081045 604.14733642 C642.06163838 604.15066957 629.75342599 604.17636484 617.44451237 604.25979292 C606.96049903 604.33057488 596.47776043 604.35311773 585.99355984 604.31333109 C580.64616136 604.29446148 575.30131042 604.29797754 569.95421696 604.36291373 C565.05165237 604.42189614 560.15355392 604.41540031 555.25100761 604.35826675 C553.48439278 604.34892922 551.71745559 604.36292679 549.95128215 604.40350427 C540.8583694 604.59898509 534.70512857 604.01965303 527.87039601 597.59623002 C519.32052881 588.75185365 519.32052881 588.75185365 518.70032406 583.37674582 C519.19676644 578.41232196 520.55039818 577.06969667 524.07532406 573.62674582 C527.94054309 572.33833948 531.49673712 572.6286012 535.51209164 572.77054465 C537.3006163 572.82330035 539.0891777 572.87482088 540.87776852 572.92528403 C541.82827902 572.95266465 542.77878952 572.98004527 543.75810337 573.0082556 C549.8935667 573.16470328 556.03080784 573.22481351 562.16778183 573.29333079 C567.53975713 573.35852835 572.90489138 573.4628507 578.27381039 573.65872824 C604.89058008 575.69124166 604.89058008 575.69124166 628.25910759 565.43449175 C632.39661314 561.43317238 635.83567537 556.9183407 639.13803768 552.21289694 C641.50504828 549.05309198 644.16099679 546.67780198 647.19698238 544.18053305 C650.14918264 541.73843686 652.79611705 539.01096448 655.48157406 536.28299582 C656.0505743 535.71020895 656.61957455 535.13742209 657.20581722 534.54727805 C658.99815387 532.74289331 660.78716722 530.93527222 662.57532406 529.12674582 C675.74065669 515.81144195 675.74065669 515.81144195 681.92493343 510.5544802 C687.37654149 505.66734382 692.42936721 500.3313222 697.57532406 495.12674582 C710.74065669 481.81144195 710.74065669 481.81144195 716.92493343 476.5544802 C722.37654149 471.66734382 727.42936721 466.3313222 732.57532406 461.12674582 C745.74065669 447.81144195 745.74065669 447.81144195 751.92493343 442.5544802 C757.37654149 437.66734382 762.42936721 432.3313222 767.57532406 427.12674582 C780.74065669 413.81144195 780.74065669 413.81144195 786.92493343 408.5544802 C792.37654149 403.66734382 797.42936721 398.3313222 802.57532406 393.12674582 C815.74139207 379.81069819 815.74139207 379.81069819 820.04407406 376.15799582 C826.43058089 370.72912781 832.18542568 364.58113213 838.07532406 358.62674582 C851.77269752 344.77940111 851.77269752 344.77940111 857.91126156 339.56815207 C863.54072912 334.51788965 868.75855248 329.00173023 874.07532406 323.62674582 C887.77269752 309.77940111 887.77269752 309.77940111 893.91126156 304.56815207 C899.54072912 299.51788965 904.75855248 294.00173023 910.07532406 288.62674582 C924.06407861 274.48482972 924.06407861 274.48482972 930.22376156 269.25565207 C934.02748422 265.9093391 937.52512684 262.23752661 941.07532406 258.62674582 C946.016406 253.60134507 950.98145324 248.70670985 956.34876156 244.13455832 C956.91852718 243.6369802 957.48829281 243.13940207 958.07532406 242.62674582 C958.59832083 242.17848037 959.12131759 241.73021493 959.66016275 241.26836568 C962.1377394 238.39431945 961.47378711 234.6115558 961.43608761 230.98985922 C961.43865088 230.09708153 961.44121416 229.20430385 961.44385511 228.28447229 C961.44881227 225.28095041 961.4322682 222.27792677 961.41590023 219.2744509 C961.41505438 217.12625257 961.41552828 214.97805338 961.41722775 212.82985556 C961.41809075 206.98716885 961.40041561 201.14466578 961.37950587 195.30202186 C961.36078986 189.20012345 961.35899264 183.09822112 961.35542965 176.99629843 C961.34609424 165.43658588 961.32146022 153.87695813 961.29138118 142.31728297 C961.25788368 129.1590718 961.24136287 116.00085664 961.22629488 102.84261346 C961.19491198 75.7706105 961.14212244 48.69868291 961.07532406 21.62674582 C960.39768002 22.31091574 959.72003597 22.99508566 959.02185726 23.69998801 C957.68127254 25.04818625 957.68127254 25.04818625 956.31360531 26.42362082 C955.42971127 27.31404074 954.54581722 28.20446066 953.63513851 29.12186301 C951.56976631 31.14291392 949.48924061 33.03931239 947.26282406 34.87674582 C942.79166043 38.68585074 938.9102711 43.0239486 934.99402523 47.38944113 C932.2913534 50.37071732 929.54709549 53.14251794 926.48157406 55.75174582 C920.3396831 61.01790305 914.7581659 66.87644232 909.07532406 72.62674582 C896.44203226 85.41000886 896.44203226 85.41000886 890.21204281 90.71268332 C884.93837335 95.43681135 880.05046511 100.5925443 875.07532406 105.62674582 C862.44129944 118.41075038 862.44129944 118.41075038 858.10657406 122.09549582 C851.9009882 127.37739909 846.30031429 133.33654008 840.57532406 139.12674582 C827.38094785 152.47142412 827.38094785 152.47142412 821.19446468 157.73026145 C815.92490736 162.446151 811.04442302 167.59865812 806.07532406 172.62674582 C793.44203226 185.41000886 793.44203226 185.41000886 787.21204281 190.71268332 C781.93837335 195.43681135 777.05046511 200.5925443 772.07532406 205.62674582 C759.44129944 218.41075038 759.44129944 218.41075038 755.10657406 222.09549582 C748.9009882 227.37739909 743.30031429 233.33654008 737.57532406 239.12674582 C724.38094785 252.47142412 724.38094785 252.47142412 718.19446468 257.73026145 C712.92490736 262.446151 708.04442302 267.59865812 703.07532406 272.62674582 C690.41309048 285.43929421 690.41309048 285.43929421 684.18079281 290.74393332 C679.09091904 295.29554585 674.37258643 300.2700308 669.57532406 305.12674582 C657.47261217 317.37944705 657.47261217 317.37944705 653.13782406 321.06424582 C646.92405383 326.35985229 641.31100104 332.32573159 635.57532406 338.12674582 C622.38094785 351.47142412 622.38094785 351.47142412 616.19446468 356.73026145 C610.92490736 361.446151 606.04442302 366.59865812 601.07532406 371.62674582 C588.42603983 384.42619114 588.42603983 384.42619114 582.1627264 389.75321066 C579.40723441 392.22638558 576.8148991 394.85123945 574.21985531 397.49002707 C573.70510647 398.01265128 573.19035763 398.53527548 572.66001034 399.07373679 C570.52388245 401.24637261 568.39083102 403.42184342 566.26697445 405.60648215 C564.69553517 407.22029625 563.11475201 408.82446559 561.53235531 410.42752707 C561.05828747 410.92021582 560.58421963 411.41290457 560.09578609 411.92052329 C556.2227524 415.82300579 553.20945377 417.46546607 547.70357102 417.88155484 C546.40226945 417.88383316 545.10096788 417.88611149 543.76023293 417.88845885 C542.66511063 417.89445294 542.66511063 417.89445294 541.54786465 417.90056813 C539.09435889 417.91156233 536.64107791 417.90833832 534.18755245 417.90521872 C532.41369522 417.91022045 530.63984027 417.91609588 528.86598855 417.92277145 C523.9859985 417.93860034 519.10606598 417.94200372 514.22605336 417.94342005 C508.96567999 417.94710906 503.70533836 417.96226203 498.44498348 417.97603476 C489.32919998 417.99832712 480.21342775 418.01332852 471.09762287 418.02340186 C457.91764257 418.03797677 444.73770149 418.06351026 431.55774418 418.09173314 C410.17502402 418.13722274 388.79229823 418.17382858 367.40955257 418.20487082 C346.63610499 418.23504749 325.86267122 418.2693937 305.08924007 418.30936301 C303.16907885 418.31305533 303.16907885 418.31305533 301.21012648 418.31682225 C294.78831295 418.32919668 288.36649959 418.34165324 281.94468629 418.35415065 C228.65491815 418.4577509 175.36513278 418.54694345 122.07532406 418.62674582 C126.34042268 422.9167395 130.60892974 427.20330319 134.88049984 431.48685324 C136.33031323 432.94166599 137.77922423 434.39737865 139.22717953 435.85404074 C141.31997049 437.95909133 143.4160878 440.06078201 145.51282406 442.16190207 C146.14962093 442.80386023 146.78641781 443.44581839 147.44251156 444.10722983 C151.25768468 447.9228677 155.18562708 451.54531197 159.28182125 455.05809653 C162.07023678 457.49692518 164.66610184 460.11212667 167.26282406 462.75174582 C167.80962826 463.30233664 168.35643246 463.85292746 168.91980648 464.42020285 C171.2180677 466.73454042 173.51019922 469.05491232 175.80286312 471.3747927 C183.21423692 478.95675962 183.21423692 478.95675962 191.04407406 486.09549582 C197.89474062 491.92646149 204.0556081 498.55554409 210.37561703 504.9475466 C212.13796589 506.72816811 213.90253457 508.50653196 215.66907406 510.28299582 C216.2349725 510.85211691 216.80087093 511.42123801 217.38391781 512.0076052 C220.90372502 515.52326169 224.54084814 518.82378055 228.33484554 522.04300559 C230.8873243 524.36562162 233.06974559 526.96105618 235.30237484 529.58719504 C238.37194471 533.11834165 241.69626788 536.39187898 245.01282406 539.68924582 C245.67733578 540.35762473 246.3418475 541.02600363 247.02649593 541.71463645 C250.17325712 544.85529335 253.34854475 547.89836091 256.73548031 550.77908957 C263.6612178 556.7554468 269.9483401 563.44705415 276.37561703 569.9475466 C285.10669424 578.78814688 285.10669424 578.78814688 294.32727718 587.11014426 C297.38474781 589.76279894 300.22437613 592.63086119 303.07532406 595.50174582 C303.65926937 596.08182395 304.24321468 596.66190207 304.84485531 597.25955832 C309.07532406 601.49993449 309.07532406 601.49993449 309.07532406 602.62674582 C268.90393683 602.74113609 228.73257079 602.82926666 188.56105329 602.88207247 C183.82077414 602.88832616 179.08049531 602.89479776 174.34021664 602.90140402 C172.92463256 602.90337135 172.92463256 602.90337135 171.48045083 602.90537842 C156.19044377 602.92714783 140.90053049 602.9665778 125.61057911 603.0125098 C109.92711871 603.05923175 94.24370751 603.08703219 78.56018037 603.09718829 C68.87892039 603.10405631 59.19792548 603.12576491 49.51674708 603.16632815 C42.8821941 603.19271394 36.24777859 603.20075629 29.61317692 603.19425271 C25.78259652 603.19104328 21.95247999 603.19603723 18.12198162 603.22277319 C13.97207514 603.25152761 9.82316172 603.24171238 5.67317867 603.2280184 C4.45820322 603.24258261 3.24322776 603.25714682 1.99143487 603.27215236 C0.88072663 603.26219712 -0.22998162 603.25224188 -1.37434769 603.24198496 C-2.33238208 603.24388357 -3.29041647 603.24578217 -4.27748221 603.2477383 C-8.21303479 602.3245159 -9.58388162 600.91193804 -11.92467594 597.62674582 C-12.64345998 594.34103791 -12.59584769 591.1327625 -12.55388165 587.77998984 C-12.56114885 586.77620138 -12.56841605 585.77241292 -12.57590348 584.73820662 C-12.59424305 581.35326512 -12.57675556 577.96944393 -12.55959415 574.58450949 C-12.56535176 572.14186994 -12.57329044 569.69923472 -12.58323038 567.25660861 C-12.59979587 561.93487819 -12.60072969 556.61348234 -12.58799458 551.29176581 C-12.56910874 543.37835806 -12.57873683 535.46516479 -12.59403611 527.55175856 C-12.62039005 513.41981861 -12.61807288 499.28799155 -12.60364155 485.15604082 C-12.59107431 472.78911648 -12.58777533 460.42223358 -12.59375477 448.05530417 C-12.59413669 447.2356562 -12.59451862 446.41600823 -12.59491212 445.57152244 C-12.59646876 442.24448239 -12.59806075 438.91744235 -12.59971094 435.59040235 C-12.61501328 404.366617 -12.60112702 373.14290365 -12.57422645 341.91912942 C-12.55049759 314.16570517 -12.5526207 286.41239563 -12.57653141 258.65897238 C-12.60329222 227.49307904 -12.61392814 196.32724932 -12.59847009 165.16134608 C-12.59686645 161.84029322 -12.59530226 158.51924035 -12.59375477 155.19818747 C-12.59335938 154.380432 -12.59296399 153.56267654 -12.59255663 152.7201406 C-12.58686415 140.35959501 -12.59353014 127.99909535 -12.60615253 115.63855612 C-12.62042999 101.58704515 -12.61691509 87.53566494 -12.58974881 73.48417032 C-12.57503881 65.61553698 -12.5741497 57.74718663 -12.59297969 49.87856048 C-12.60547199 44.01242747 -12.59197814 38.14654596 -12.56810682 32.28044152 C-12.56249654 29.90030697 -12.56541874 27.52013476 -12.57748576 25.14002419 C-12.59257822 21.91730028 -12.57721284 18.69614237 -12.55388165 15.4735018 C-12.56558748 14.53829361 -12.57729331 13.60308541 -12.58935386 12.63953757 C-12.57683627 11.78099925 -12.56431867 10.92246093 -12.55142176 10.03790629 C-12.55108297 9.30108065 -12.55074417 8.56425502 -12.55039511 7.80510134 C-10.70916275 1.39510327 -6.06909382 0.00167717 0 0 Z " fill="#FFFFFF" transform="translate(1011.9246759414673,81.37325417995453)"/>
<path d="M0 0 C2.7637739 -0.30208752 5.30490799 -0.40546273 8.07204914 -0.38311005 C9.34460908 -0.39054932 9.34460908 -0.39054932 10.64287731 -0.39813888 C13.51697441 -0.41120553 16.39061529 -0.40267553 19.26472473 -0.39440918 C21.33354055 -0.39929287 23.40235363 -0.40548023 25.47116202 -0.41286707 C31.18062086 -0.42935626 36.88994245 -0.42693049 42.59941685 -0.4214921 C48.74747317 -0.41883288 54.89549197 -0.43333285 61.04353333 -0.44558716 C73.09807684 -0.466691 85.15256043 -0.47119796 97.20711569 -0.46939927 C107.00155939 -0.46802791 116.79598847 -0.47183548 126.59042931 -0.47932434 C127.99600178 -0.48037466 129.40157425 -0.48142228 130.80714672 -0.4824672 C131.85367973 -0.48324622 131.85367973 -0.48324622 132.92135481 -0.48404097 C133.62029943 -0.48456112 134.31924405 -0.48508126 135.03936881 -0.48561716 C135.73945679 -0.48614115 136.43954477 -0.48666514 137.16084754 -0.48720502 C156.86163802 -0.50179605 176.56242311 -0.51006744 196.26321888 -0.50545502 C197.37807547 -0.50519708 197.37807547 -0.50519708 198.51545441 -0.50493394 C202.2827407 -0.50404501 206.05002697 -0.5031002 209.81731323 -0.50213593 C210.9396658 -0.50184938 210.9396658 -0.50184938 212.08469216 -0.50155704 C213.59780708 -0.50116995 215.11092201 -0.50077963 216.62403693 -0.50038607 C240.16777376 -0.49441612 263.71141229 -0.5098509 287.25512695 -0.54199219 C313.6888816 -0.57804802 340.12257391 -0.59740459 366.5563547 -0.59245348 C369.37361093 -0.59198348 372.19086716 -0.59157323 375.0081234 -0.59120178 C375.70183482 -0.5910994 376.39554625 -0.59099701 377.11027923 -0.59089152 C387.59492358 -0.58969533 398.07950073 -0.60168174 408.56412697 -0.62034607 C420.48571201 -0.64155778 432.40715093 -0.64499742 444.3287547 -0.62604648 C450.41541495 -0.61685972 456.50179364 -0.61583541 462.58843231 -0.63640213 C468.15548119 -0.65500561 473.72201581 -0.65072845 479.28904446 -0.62785631 C481.30790351 -0.62364354 483.32680118 -0.6279595 485.34561954 -0.64145225 C488.08118543 -0.65849668 490.81493208 -0.64500948 493.55042744 -0.62361908 C494.34210209 -0.63589661 495.13377673 -0.64817413 495.94944152 -0.6608237 C499.66808046 -0.59969427 501.84432135 -0.10019372 504.98877293 1.92355394 C507.83129176 6.2715741 507.69298715 9.75109587 507.6292057 14.84675598 C507.63647291 15.85054444 507.64374011 16.8543329 507.65122753 17.8885392 C507.66956711 21.2734807 507.65207962 24.65730189 507.63491821 28.04223633 C507.64067582 30.48487588 507.64861449 32.9275111 507.65855443 35.37013721 C507.67511993 40.69186763 507.67605375 46.01326348 507.66331863 51.33498001 C507.64443279 59.24838776 507.65406089 67.16158103 507.66936017 75.07498726 C507.69571411 89.20692721 507.69339694 103.33875427 507.67896561 117.470705 C507.66639837 129.83762934 507.66309939 142.20451224 507.66907883 154.57144165 C507.66965172 155.80091361 507.66965172 155.80091361 507.67023618 157.05522338 C507.67179281 160.38226344 507.67338481 163.70930347 507.675035 167.03634347 C507.69033734 198.26012882 507.67645107 229.48384217 507.64955051 260.7076164 C507.62582165 288.46104065 507.62794476 316.21435019 507.65185547 343.96777344 C507.67861628 375.13366678 507.6892522 406.2994965 507.67379415 437.46539974 C507.67219051 440.7864526 507.67062631 444.10750547 507.66907883 447.42855835 C507.66868344 448.24631382 507.66828805 449.06406928 507.66788069 449.90660522 C507.6621882 462.26715081 507.6688542 474.62765047 507.68147659 486.9881897 C507.69575405 501.03970067 507.69223915 515.09108088 507.66507287 529.1425755 C507.65036287 537.01120884 507.64947376 544.87955919 507.66830375 552.74818534 C507.68079605 558.61431835 507.6673022 564.48019986 507.64343087 570.3463043 C507.6378206 572.72643885 507.6407428 575.10661106 507.65280981 577.48672163 C507.66790228 580.70944554 507.6525369 583.93060345 507.6292057 587.15324402 C507.64091153 588.08845221 507.65261737 589.02366041 507.66467792 589.98720825 C507.64590153 591.27501573 507.64590153 591.27501573 507.62674582 592.58883953 C507.62640702 593.32566517 507.62606823 594.0624908 507.62571917 594.82164448 C506.62955516 598.28965293 504.80616259 599.80493814 502 602 C498.79041761 602.62571917 498.79041761 602.62571917 495.07532406 602.62674582 C494.3862383 602.63375741 493.69715253 602.64076899 492.98718539 602.64799305 C490.66797594 602.66545329 488.35042074 602.64718337 486.03123474 602.6292057 C484.34877131 602.63441973 482.66631348 602.64182475 480.98386824 602.65122753 C476.33556958 602.67078611 471.68778674 602.65900268 467.03949602 602.64233777 C461.99205353 602.62970105 456.94469267 602.64593514 451.89726162 602.65855443 C443.04274552 602.67665387 434.1883817 602.67604006 425.33385849 602.66331863 C412.16718742 602.64445303 399.00064547 602.65405043 385.83397534 602.66936017 C363.68643225 602.69419975 341.53893531 602.6950709 319.39138794 602.68147659 C318.37924585 602.68085563 318.37924585 602.68085563 317.34665645 602.68022212 C316.67081925 602.67980747 315.99498206 602.67939282 315.29866496 602.67896561 C294.72350663 602.66635857 274.14837305 602.6630886 253.57321167 602.66907883 C252.19634712 602.66946622 250.81948256 602.669852 249.442618 602.67023618 C243.90981462 602.67178846 238.37701124 602.67338179 232.84420788 602.675035 C217.37694835 602.67962043 201.90968873 602.68247315 186.44242859 602.68396568 C185.73803838 602.68403391 185.03364816 602.68410214 184.30791279 602.68417244 C161.85707094 602.68621936 139.40623771 602.68058162 116.95539856 602.66971779 C116.22703756 602.66936654 115.49867657 602.6690153 114.74824402 602.66865341 C102.9195239 602.66292841 91.09080396 602.65683122 79.26208404 602.65070254 C32.34559725 602.62642015 -14.57081821 602.62754718 -61.48730469 602.65185547 C-73.31000257 602.65796123 -85.13270047 602.66401641 -96.95539856 602.66971779 C-97.68332771 602.67007003 -98.41125686 602.67042227 -99.16124448 602.67078519 C-121.58830699 602.68156325 -144.01536356 602.68613802 -166.44242859 602.68396568 C-167.14630403 602.68389776 -167.85017947 602.68382984 -168.57538447 602.68375986 C-184.02535107 602.68219759 -199.47531704 602.67902963 -214.92528302 602.67441317 C-220.45319235 602.6727674 -225.9811017 602.67120201 -231.50901106 602.66965961 C-232.88425874 602.66927267 -234.25950642 602.66887902 -235.6347541 602.66847863 C-256.20539866 602.66250629 -276.77601536 602.66760136 -297.34665645 602.68022212 C-298.02141784 602.68063609 -298.69617923 602.68105007 -299.39138794 602.68147659 C-300.06490905 602.68189 -300.73843016 602.68230342 -301.432361 602.68272936 C-324.12863984 602.69650813 -346.8248623 602.69146329 -369.52113366 602.66507287 C-382.61536664 602.65035095 -395.70942954 602.64949108 -408.80365824 602.66830375 C-417.53812442 602.67947214 -426.27245357 602.67261725 -435.00689937 602.6507799 C-439.99152607 602.63882746 -444.97581363 602.63493912 -449.96043026 602.65280981 C-454.48929585 602.66888186 -459.01751939 602.66221698 -463.54633756 602.63690651 C-465.18006763 602.63184351 -466.81385006 602.63527231 -468.4475389 602.6479362 C-470.65758821 602.66386096 -472.86538087 602.64923243 -475.07532406 602.62674582 C-476.30130493 602.62640702 -477.5272858 602.62606823 -478.79041761 602.62571917 C-482.93831173 601.81707289 -484.43418592 600.29810714 -487 597 C-487.36771245 594.1612599 -487.48630804 591.98179849 -487.3125 589.1875 C-487.28994141 588.49462891 -487.26738281 587.80175781 -487.24414062 587.08789062 C-487.18562661 585.39098427 -487.0959548 583.69520139 -487 582 C-486.42630141 582.00775137 -485.85260283 582.01550274 -485.26151943 582.023489 C-471.23632792 582.20809839 -457.21233982 582.3138606 -443.18591976 582.33421898 C-436.40225511 582.34592341 -429.62063069 582.38331742 -422.83764648 582.48339844 C-416.28192488 582.58005139 -409.72831759 582.60219374 -403.17190742 582.58046341 C-400.68054199 582.58408132 -398.18908078 582.61197089 -395.69828606 582.66541672 C-379.80979662 583.25192969 -379.80979662 583.25192969 -366.16202641 576.19178963 C-363.78795204 573.83928734 -361.60359436 571.39683377 -359.49990082 568.80077553 C-357.05978577 565.87118217 -354.30341685 563.27696717 -351.56640625 560.62890625 C-350.55547802 559.6150819 -349.54668968 558.59911463 -348.54101562 557.58007812 C-348.05028564 557.0832251 -347.55955566 556.58637207 -347.05395508 556.07446289 C-346.31568481 555.32604126 -346.31568481 555.32604126 -345.5625 554.5625 C-334.45557999 543.30661284 -334.45557999 543.30661284 -330.18359375 539.68359375 C-323.57683116 534.03991115 -317.6070994 527.67146532 -311.5 521.5 C-297.26984572 507.11986668 -297.26984572 507.11986668 -293.03125 503.53125 C-286.28237452 497.80953456 -280.21940491 491.28259189 -274 485 C-258.58466494 469.42805051 -258.58466494 469.42805051 -252.51708984 464.29003906 C-250.51129445 462.58443513 -248.65577018 460.75364211 -246.8125 458.875 C-245.89404297 457.94300781 -245.89404297 457.94300781 -244.95703125 456.9921875 C-244.31121094 456.33476563 -243.66539062 455.67734375 -243 455 C-241.33333333 453.33333333 -239.66666667 451.66666667 -238 450 C-236.58308126 448.57186463 -235.16644166 447.1434523 -233.75 445.71484375 C-232.16672743 444.12233542 -230.58339252 442.52988907 -229 440.9375 C-228.2059375 440.13505859 -227.411875 439.33261719 -226.59375 438.50585938 C-222.86822663 434.76481299 -219.16521307 431.25407271 -215 428 C-213.96637721 426.86301493 -212.96500859 425.69577152 -212 424.5 C-208.61230256 420.54768631 -204.89893426 417.11278005 -201.03637695 413.63012695 C-193.40513164 406.65979726 -186.19805174 399.24522692 -178.93408203 391.89672852 C-178.40636703 391.36481903 -177.87865204 390.83290955 -177.33494568 390.28488159 C-175.88680348 388.82506025 -174.44170796 387.36221839 -172.99682617 385.89916992 C-168.06699355 381.07174876 -163.11612023 376.68720726 -157.29531956 372.94605923 C-147.66739146 366.57980662 -138.22587959 358.52086453 -135.20524597 346.95761108 C-133.7157344 338.37951767 -133.5127247 329.73592752 -133.5234375 321.046875 C-133.52466346 320.05166242 -133.52466346 320.05166242 -133.52591419 319.03634453 C-133.55769907 310.73044885 -133.80741311 302.43581222 -134.13425279 294.13688612 C-134.5752618 282.87919396 -134.78563166 271.61537937 -134.9643122 260.3508637 C-135.04234712 255.7877309 -135.20483798 251.2323487 -135.39193726 246.67254639 C-135.83183076 233.04897975 -135.54045045 223.95401229 -127 213 C-125.85981985 211.10763635 -124.74091967 209.20206261 -123.65625 207.27734375 C-122.60548459 205.4966175 -121.55339664 203.716671 -120.5 201.9375 C-119.65284424 200.50422363 -119.65284424 200.50422363 -118.78857422 199.04199219 C-115.94801886 194.24718036 -113.07827444 189.47652875 -110.125 184.75 C-106.12829223 178.32309069 -102.389301 171.75254848 -98.625 165.1875 C-94.08053742 157.26400779 -89.47150468 149.41288693 -84.5690918 141.70605469 C-80.88870687 135.89516217 -77.45644518 129.95087079 -74.02978516 123.98779297 C-71.27325004 119.19276272 -68.48302813 114.42272554 -65.625 109.6875 C-61.96667291 103.62366356 -58.35037441 97.53593038 -54.75 91.4375 C-54.20206787 90.50969727 -53.65413574 89.58189453 -53.08959961 88.62597656 C-50.24308595 83.80440698 -47.399684 78.98101707 -44.55859375 74.15625 C-35.16431798 58.21465362 -35.16431798 58.21465362 -31.125 51.75 C-27.12829054 45.32308797 -23.38936328 38.75251615 -19.625 32.1875 C-13.36543457 21.27579633 -6.9797461 10.46961915 0 0 Z " fill="#FFFFFF" transform="translate(1487,1316)"/>
<path d="M0 0 C53.54777447 -0.11436953 107.09553663 -0.20251031 160.64340914 -0.25532665 C166.96092205 -0.26158041 173.27843472 -0.268052 179.59594727 -0.2746582 C181.48255317 -0.27662553 181.48255317 -0.27662553 183.40727232 -0.2786326 C203.78965649 -0.30040693 224.17197036 -0.33983962 244.55431279 -0.38576398 C265.45843194 -0.4324722 286.3625142 -0.46028347 307.2666834 -0.47044247 C320.17240829 -0.47731332 333.07793451 -0.49903744 345.98359827 -0.53958233 C354.82574614 -0.56595114 363.66779085 -0.5740143 372.50997522 -0.56750689 C377.61642796 -0.56429487 382.72253282 -0.56932165 387.82892418 -0.59602737 C392.50045566 -0.62028122 397.1714039 -0.62163899 401.84296171 -0.60449447 C403.5361871 -0.60237421 405.22944824 -0.60878349 406.9226028 -0.62441591 C409.21907072 -0.64439193 411.51341468 -0.63372798 413.80984783 -0.61523914 C415.0868473 -0.61713775 416.36384677 -0.61903635 417.6795432 -0.62099248 C421 0 421 0 423.91005915 1.93279105 C426.83998052 6.23276014 426.69410776 9.59434601 426.6292057 14.69058228 C426.64010651 16.17093936 426.64010651 16.17093936 426.65122753 17.68120265 C426.66956497 21.00871672 426.65208071 24.33509081 426.63491821 27.66259766 C426.64067591 30.0639893 426.64861464 32.46537655 426.65855443 34.86675453 C426.67511902 40.09832283 426.67605428 45.32965681 426.66331863 50.56122589 C426.64443192 58.34062232 426.65406134 66.1198006 426.66936017 73.89919549 C426.69571343 87.79185377 426.69339721 101.68439722 426.67896561 115.57706648 C426.66639814 127.73459717 426.66309949 139.89208573 426.66907883 152.04962158 C426.66946075 152.85540609 426.66984268 153.66119059 426.67023618 154.49139281 C426.67179282 157.76216339 426.67338481 161.03293394 426.675035 164.30370448 C426.69033718 194.9991169 426.67645133 225.69445608 426.64955051 256.3898572 C426.62582167 283.67335549 426.62794477 310.95673711 426.65185547 338.24023438 C426.67861655 368.8787509 426.68925205 399.5172027 426.67379415 430.15572929 C426.67219051 433.42061232 426.67062632 436.68549536 426.66907883 439.95037842 C426.66868344 440.75430238 426.66828805 441.55822634 426.66788069 442.38651164 C426.66218832 454.5377418 426.66885399 466.68892524 426.68147659 478.84014893 C426.69575436 492.65377503 426.6922385 506.46726812 426.66507287 520.28087759 C426.65036338 528.0162055 426.64947301 535.75124554 426.66830375 543.48656613 C426.68079686 549.25348697 426.66730114 555.02010816 426.64343087 560.7869823 C426.63782096 563.12674019 426.64074202 565.46653639 426.65280981 567.80626988 C426.66790422 570.97454489 426.65253509 574.14122743 426.6292057 577.30941772 C426.64091153 578.22858247 426.65261737 579.14774721 426.66467792 580.09476542 C426.60188077 584.32989381 426.35607541 586.46002048 423.97740906 590.06720895 C420.18489358 592.52912797 417.11206854 592.68966302 412.73224926 592.61523914 C411.89917693 592.62100836 411.06610461 592.62677759 410.20778766 592.63272163 C407.40350424 592.64600461 404.60064318 592.62348839 401.7964325 592.60127258 C399.77096162 592.60345212 397.7454921 592.60782846 395.72003013 592.61421841 C390.14437602 592.62542448 384.56920008 592.60536311 378.99360693 592.58032811 C372.98477698 592.55877941 366.97597501 592.56603958 360.96711731 592.56983948 C350.55313637 592.572464 340.13928416 592.5569218 329.72534752 592.52865028 C318.80236763 592.49907279 307.87945008 592.47982211 296.95643044 592.47438622 C296.27746421 592.47404252 295.59849799 592.47369882 294.89895703 592.47334471 C291.45087987 592.47165306 288.00280266 592.47014613 284.55472539 592.46871033 C260.12718007 592.45820615 235.69971622 592.42451349 211.2722168 592.37719727 C187.54012485 592.33128108 163.80805519 592.2958601 140.07592773 592.2746582 C139.34449797 592.27400057 138.6130682 592.27334294 137.8594739 592.27266538 C130.5142062 592.26607283 123.16893833 592.25969375 115.82367031 592.25347109 C100.860295 592.24078976 85.89692116 592.2266835 70.93354797 592.2117157 C70.24554485 592.21102925 69.55754173 592.2103428 68.84869003 592.20963555 C22.8990922 592.16362634 -23.05045815 592.08429572 -69 592 C-68.45114136 591.0405397 -67.90228271 590.08107941 -67.33679199 589.09254456 C-66.60928322 587.82024724 -65.88178542 586.54794365 -65.15429688 585.27563477 C-64.7934198 584.64485268 -64.43254272 584.01407059 -64.06072998 583.36417389 C-61.85320918 579.50282322 -59.66608799 575.63114843 -57.50488281 571.74365234 C-53.91704983 565.29496711 -50.17875028 558.97245837 -46.27734375 552.70703125 C-41.64086744 545.21184931 -37.22974854 537.57711209 -32.75830078 529.98291016 C-30.94523632 526.90709488 -29.12760118 523.83402279 -27.30859375 520.76171875 C-26.71264404 519.75488037 -26.11669434 518.74804199 -25.50268555 517.71069336 C-24.35220352 515.76726174 -23.20133716 513.82405759 -22.05004883 511.88110352 C-21.27504028 510.5709729 -21.27504028 510.5709729 -20.484375 509.234375 C-20.02772461 508.46319336 -19.57107422 507.69201172 -19.10058594 506.89746094 C-17.21927452 503.65399324 -16.87508678 501.79713078 -16.87530136 498.03860092 C-16.87171494 496.45497478 -16.87171494 496.45497478 -16.86805606 494.83935618 C-16.87048855 493.67031725 -16.87292104 492.50127832 -16.87542725 491.29681396 C-16.87331202 489.44462623 -16.87331202 489.44462623 -16.87115407 487.55502057 C-16.86875881 484.835851 -16.86820804 482.11675156 -16.87071037 479.39758873 C-16.87476097 474.97387925 -16.87200559 470.55018902 -16.86836243 466.1264801 C-16.864268 460.53705467 -16.86203271 454.94763354 -16.86194643 449.3582066 C-16.86174392 438.37414052 -16.84929687 427.3901187 -16.83233643 416.40606689 C-16.82973058 414.67798194 -16.82713177 412.94989698 -16.8245399 411.22181201 C-16.82060136 408.60261278 -16.81665486 405.98341357 -16.81267868 403.36421441 C-16.79772524 393.48385952 -16.78410449 383.60350329 -16.77197266 373.72314453 C-16.7708591 372.81969312 -16.76974553 371.91624171 -16.76859823 370.98541299 C-16.75102462 356.34613808 -16.74815396 341.70689082 -16.74982306 327.06760713 C-16.75110165 312.04508247 -16.73337749 297.0226608 -16.69880509 282.00017571 C-16.67813862 272.73033043 -16.67283007 263.46073165 -16.6871334 254.19087324 C-16.69558616 247.83801643 -16.68587761 241.48535142 -16.6618239 235.13253513 C-16.64850276 231.46589116 -16.64335075 227.79970711 -16.65994453 224.13306618 C-16.67773158 220.15883198 -16.65700561 216.18533126 -16.63250732 212.21112061 C-16.64954039 210.47094654 -16.64954039 210.47094654 -16.66691756 208.69561744 C-16.56216427 199.98507491 -16.56216427 199.98507491 -14.03329563 196.28132915 C-9.87363382 193.15286463 -6.91639616 193.17952562 -1.83476257 193.28761292 C-0.90916859 193.28334177 0.01642539 193.27907063 0.97006768 193.27467006 C4.07362216 193.26746379 7.17522221 193.30298846 10.27856445 193.33813477 C12.50274424 193.34142426 14.72692951 193.34197762 16.95111084 193.33999634 C21.74216567 193.34114126 26.53266678 193.36076844 31.32360268 193.39438057 C38.89999898 193.44649384 46.47598691 193.45205272 54.05253601 193.45018005 C64.67598046 193.45174389 75.29923253 193.46921547 85.92260742 193.50463867 C86.59655098 193.50687724 87.27049455 193.50911581 87.96486064 193.51142221 C94.79827311 193.53439456 101.63167597 193.55964876 108.46507441 193.58645696 C111.87214174 193.59980508 115.27921011 193.61286539 118.6862793 193.62573242 C119.35849045 193.62827959 120.0307016 193.63082676 120.72328279 193.63345111 C131.94225667 193.67515264 143.16110038 193.68918528 154.38016289 193.68363041 C161.91083455 193.68177485 169.44041216 193.71315651 176.97086108 193.76974308 C181.65848918 193.79793386 186.34578691 193.79712833 191.03347778 193.78839493 C193.20550725 193.79028067 195.37756498 193.80418453 197.54942894 193.83106422 C200.51855504 193.86614622 203.48460591 193.85798227 206.45381165 193.83937073 C207.31034358 193.85996239 208.16687551 193.88055405 209.04936296 193.9017697 C215.98897682 193.78328022 219.29372366 190.8665565 224 186 C224.82161621 185.28279785 225.64323242 184.5655957 226.48974609 183.82666016 C233.84225196 177.31234994 240.72253388 170.35724146 247.625 163.375 C261.15446485 149.69010913 261.15446485 149.69010913 267.36328125 144.40966797 C269.757317 142.3477404 271.97060708 140.12444111 274.1875 137.875 C274.98542969 137.06804687 275.78335937 136.26109375 276.60546875 135.4296875 C277.39566406 134.62789062 278.18585938 133.82609375 279 133 C280.66666667 131.33333333 282.33333333 129.66666667 284 128 C285.16309905 126.82585618 286.32583217 125.65134981 287.48828125 124.4765625 C298.98431362 112.8863861 298.98431362 112.8863861 303.3125 109.25 C307.38999725 105.81818019 310.81826007 101.85740397 314.3125 97.84375 C316.33074907 95.70816087 318.27667232 93.86114212 320.5 91.96875 C326.66743729 86.66336539 332.2854462 80.78239191 338 75 C340.26778857 72.70529026 342.53909708 70.41414624 344.8125 68.125 C345.31483154 67.61437012 345.81716309 67.10374023 346.3347168 66.57763672 C349.0196136 63.87479099 351.77094033 61.31180814 354.66674805 58.83544922 C359.14337433 54.93556069 363.32859203 50.78411936 367.5 46.5625 C368.22703125 45.83095703 368.9540625 45.09941406 369.703125 44.34570312 C371.47109499 42.56610176 373.23666378 40.78419082 375 39 C374.29304877 38.99902319 373.58609753 38.99804638 372.85772353 38.99703997 C330.97986546 38.93879765 289.10205991 38.86502344 247.2242661 38.77101372 C242.19858325 38.75974524 237.17290012 38.74860684 232.1472168 38.73754883 C231.1466724 38.73534514 230.146128 38.73314146 229.11526408 38.730871 C212.90383492 38.69547596 196.6924058 38.67062429 180.4809523 38.64965298 C163.8527647 38.6279085 147.22462734 38.59487098 130.59648246 38.55129844 C120.33184818 38.52475839 110.06727654 38.50708036 99.80260964 38.50065396 C92.76857499 38.49540727 85.73461923 38.47921455 78.70062683 38.45433434 C74.63930951 38.44029464 70.5781335 38.43115771 66.51679039 38.43499184 C62.8001414 38.43839424 59.08379456 38.42808278 55.36720749 38.40676448 C53.38261903 38.39897642 51.3979897 38.40595298 49.41339999 38.41341704 C48.23650723 38.4039605 47.05961447 38.39450396 45.8470583 38.38476086 C44.83130641 38.38286225 43.81555453 38.38096365 42.76902229 38.37900752 C38.16796007 37.74924113 34.9901132 35.20536664 31.6796875 32.09375 C31.07060547 31.52350098 30.46152344 30.95325195 29.83398438 30.36572266 C29.18751953 29.75003418 28.54105469 29.1343457 27.875 28.5 C26.8550293 27.53586182 26.8550293 27.53586182 25.81445312 26.55224609 C19.96505262 20.98898624 14.21927137 15.32163146 8.5 9.625 C7.65679199 8.78646484 6.81358398 7.94792969 5.94482422 7.08398438 C5.16896973 6.30603516 4.39311523 5.52808594 3.59375 4.7265625 C2.89958984 4.03127441 2.20542969 3.33598633 1.49023438 2.61962891 C0 1 0 1 0 0 Z " fill="#FFFFFF" transform="translate(1568,704)"/>
<path d="M0 0 C1.75696317 -0.03898412 1.75696317 -0.03898412 3.54942054 -0.0787558 C4.83226174 -0.0819267 6.11510294 -0.08509761 7.43681812 -0.0883646 C8.81681822 -0.10916701 10.19678794 -0.13207295 11.57672149 -0.15690047 C15.36892909 -0.21856751 19.16083466 -0.24881968 22.95343912 -0.27359807 C27.04476714 -0.30547918 31.135704 -0.36555012 35.22676563 -0.42112827 C45.11269114 -0.54846103 54.99876236 -0.62622727 64.8852472 -0.69476089 C67.68168769 -0.71441701 70.47811642 -0.73529232 73.27454495 -0.75657678 C90.66670422 -0.8885835 108.05889598 -1.00340126 125.4514389 -1.06990814 C129.47991681 -1.08557483 133.50839392 -1.10142461 137.53687 -1.11755466 C138.53805022 -1.12154723 139.53923043 -1.12553979 140.57074944 -1.12965334 C156.74650599 -1.1971034 172.91929132 -1.37086426 189.09364846 -1.58878499 C205.72998685 -1.8110732 222.36481128 -1.93372992 239.00262767 -1.96178728 C248.33258209 -1.98002092 257.65785753 -2.04074286 266.98633862 -2.21394253 C274.9425508 -2.36143933 282.89315668 -2.4177052 290.85063531 -2.36073654 C294.90284485 -2.33441765 298.94334475 -2.34757225 302.99377537 -2.47876835 C318.12593099 -2.94285155 330.04315619 -2.56534878 341.59565294 8.12008209 C346.11425156 12.52954827 350.27341903 17.24515366 354.29518473 22.10826992 C357.90763481 26.47547458 361.80274898 30.11576994 366.17871571 33.68786526 C369.88889709 37.20693263 373.49917309 40.82332926 377.11621571 44.43786526 C378.0829138 45.3923924 379.04971009 46.34682008 380.01660633 47.30114651 C380.92475086 48.20735744 381.83289539 49.11356838 382.76855946 50.04724026 C383.59218983 50.86676174 384.4158202 51.68628323 385.26440907 52.53063869 C388.68560917 56.3859791 388.37011219 60.09133387 388.42871571 65.06286526 C388.45449696 66.36997463 388.48027821 67.67708401 388.50684071 69.02380276 C387.98688177 74.83001088 385.04526895 78.07450921 381.01074696 82.08630276 C380.19928211 82.89583401 379.38781727 83.70536526 378.55176258 84.53942776 C377.28429188 85.78852932 377.28429188 85.78852932 375.99121571 87.06286526 C375.16557117 87.88786526 374.33992664 88.71286526 373.48926258 89.56286526 C369.88682274 93.13975588 366.27674228 96.65574884 362.40918446 99.94567776 C356.15732348 105.32498585 350.47344271 111.32712835 344.67871571 117.18786526 C331.51338308 130.50316913 331.51338308 130.50316913 325.32910633 135.76013088 C319.87749828 140.64726726 314.82467256 145.98328888 309.67871571 151.18786526 C296.48433949 164.53254356 296.48433949 164.53254356 290.29785633 169.79138088 C285.02829901 174.50727043 280.14781466 179.65977756 275.17871571 184.68786526 C262.54469109 197.47186981 262.54469109 197.47186981 258.20996571 201.15661526 C252.00437985 206.43851852 246.40370593 212.39765952 240.67871571 218.18786526 C227.51264769 231.50391289 227.51264769 231.50391289 223.20996571 235.15661526 C216.82345887 240.58548326 211.06861408 246.73347895 205.17871571 252.68786526 C191.45220413 266.5646671 191.45220413 266.5646671 185.31152821 271.77770901 C179.86399206 276.65654632 174.8186207 281.98940968 169.67871571 287.18786526 C153.89629404 303.15007041 153.89629404 303.15007041 145.59228992 309.74059963 C127.52353107 324.31989741 121.40137445 337.97512274 116.38733387 360.26328945 C114.46242641 368.7506006 112.20487442 377.1308282 109.87012196 385.51208401 C109.67546785 386.21139412 109.48081375 386.91070423 109.28026104 387.63120556 C108.4745328 390.52373071 107.66764787 393.41592881 106.85892487 396.30761814 C104.75366789 403.83689824 102.68263353 411.37546903 100.6139555 418.91486645 C99.58335401 422.67009489 98.55094479 426.42482613 97.51855946 430.17956448 C97.31927814 430.90443113 97.11999681 431.62929779 96.91467667 432.3761301 C93.15906733 446.03513119 89.38885772 459.69011249 85.61865711 473.34509182 C82.2075553 485.70107565 78.80074395 498.05821588 75.40187645 510.41757107 C73.21313841 518.37646624 71.02281323 526.33492364 68.83159256 534.29313564 C67.46851378 539.24407882 66.10634116 544.19526761 64.74625111 549.14703274 C63.46122537 553.82547461 62.1739155 558.50328222 60.88495731 563.18064213 C60.40700346 564.9166511 59.92988785 566.65289111 59.45367527 568.38937855 C54.95958992 584.77359661 54.95958992 584.77359661 52.17871571 592.68786526 C44.70298297 592.80386882 37.22744521 592.8926351 29.75099373 592.94692612 C26.27906722 592.97298753 22.80775778 593.00831912 19.33618641 593.06506252 C15.34223072 593.12993359 11.34892013 593.15407388 7.35449696 593.17614651 C6.11162418 593.20195293 4.86875141 593.22775936 3.58821583 593.2543478 C2.42738987 593.25472546 1.26656391 593.25510311 0.07056141 593.25549221 C-1.45832966 593.2721468 -1.45832966 593.2721468 -3.01810741 593.28913784 C-7.03417651 592.42770371 -8.31915414 590.93504308 -10.82128429 587.68786526 C-11.55414304 584.45851005 -11.4925187 581.29745923 -11.45049 577.99728298 C-11.4577572 577.01037826 -11.46502441 576.02347353 -11.47251183 575.00666261 C-11.49084926 571.67914854 -11.473365 568.35277445 -11.45620251 565.0252676 C-11.4619602 562.62387595 -11.46989894 560.2224887 -11.47983873 557.82111073 C-11.49640331 552.58954242 -11.49733857 547.35820845 -11.48460293 542.12663937 C-11.46571621 534.34724294 -11.47534563 526.56806466 -11.49064446 518.78866976 C-11.51699773 504.89601148 -11.5146815 491.00346803 -11.5002499 477.11079878 C-11.48768243 464.95326808 -11.48438379 452.79577953 -11.49036312 440.63824368 C-11.49074505 439.83245917 -11.49112697 439.02667467 -11.49152047 438.19647245 C-11.49307711 434.92570187 -11.4946691 431.65493131 -11.49631929 428.38416078 C-11.51162147 397.68874836 -11.49773562 366.99340917 -11.4708348 336.29800805 C-11.44710596 309.01450977 -11.44922907 281.73112815 -11.47313976 254.44763088 C-11.49990084 223.80911436 -11.51053634 193.17066255 -11.49507844 162.53213596 C-11.49347481 159.26725294 -11.49191061 156.00236989 -11.49036312 152.73748684 C-11.48996773 151.93356288 -11.48957235 151.12963891 -11.48916498 150.30135362 C-11.48347261 138.15012346 -11.49013829 125.99894002 -11.50276089 113.84771633 C-11.51703865 100.03409023 -11.51352279 86.22059714 -11.48635717 72.40698767 C-11.47164767 64.67165976 -11.4707573 56.93661971 -11.48958804 49.20129912 C-11.50208115 43.43437829 -11.48858543 37.6677571 -11.46471517 31.90088296 C-11.45910525 29.56112507 -11.46202631 27.22132887 -11.47409411 24.88159537 C-11.48918851 21.71332036 -11.47381939 18.54663783 -11.45049 15.37844753 C-11.46219583 14.45928279 -11.47390166 13.54011805 -11.48596221 12.59309983 C-11.42162634 8.25419777 -11.21952582 6.24851111 -8.64578921 2.62519544 C-5.43850997 0.42532004 -3.85347818 0.04649348 0 0 Z " fill="#FFFFFF" transform="translate(1010.8212842941284,703.3121347427368)"/>
<path d="M0 0 C1.04070145 0.00037766 2.08140289 0.00075531 3.15364075 0.00114441 C4.82108589 0.03985405 4.82108589 0.03985405 6.5222168 0.0793457 C7.6693364 0.08642044 8.81645599 0.09349518 9.99833679 0.1007843 C13.65670392 0.12873882 17.31353218 0.19148409 20.97143555 0.25512695 C23.4538353 0.28020824 25.93625907 0.30302169 28.41870117 0.32348633 C34.499303 0.37856917 40.57900933 0.46220797 46.65893555 0.56762695 C46.04151348 5.51393609 45.06004762 10.15197422 43.7253418 14.96826172 C43.53173065 15.6716568 43.33811951 16.37505188 43.13864136 17.09976196 C42.50346468 19.40394731 41.86237268 21.70644429 41.22143555 24.0090332 C40.7763932 25.62120527 40.33182062 27.23350707 39.88769531 28.84593201 C38.72114758 33.07780779 37.54999351 37.30839247 36.37731934 41.53857422 C34.49980322 48.31166973 32.62628569 55.08585738 30.7585144 61.86164665 C30.10694769 64.22096875 29.45155783 66.57920571 28.79589844 68.93739319 C28.39461334 70.39034629 27.99348216 71.8433419 27.5925293 73.29638672 C27.24246826 74.55878677 26.89240723 75.82118683 26.53173828 77.12184143 C24.51753138 84.06025181 24.51753138 84.06025181 26.4675293 90.6340332 C26.88583008 91.3681543 27.30413086 92.10227539 27.73510742 92.85864258 C28.1843457 93.60823242 28.63358398 94.35782227 29.09643555 95.13012695 C29.51086914 95.85264648 29.92530273 96.57516602 30.35229492 97.31958008 C33.64276896 103.00761091 37.12601762 108.57892672 40.57763672 114.16992188 C43.97975394 119.7238533 47.28692056 125.33319065 50.59643555 130.94262695 C52.00724596 133.32972909 53.41895554 135.71629878 54.83081055 138.1027832 C55.49661133 139.2282959 56.16241211 140.35380859 56.84838867 141.51342773 C59.0006338 145.14403542 61.16823428 148.76505158 63.34643555 152.38012695 C70.34309303 164.01024451 77.21347447 175.71603192 84.1003418 187.41137695 C90.75724508 198.73198613 90.75724508 198.73198613 97.59643555 209.94262695 C101.88502186 216.85101913 105.9414214 223.89187903 110.02490234 230.92285156 C115.04630785 239.55332985 120.16710518 248.12115081 125.31762695 256.67504883 C129.35305592 263.37993893 133.34262864 270.10925182 137.29345703 276.86425781 C139.79750426 281.13474649 142.36335122 285.3597883 144.97143555 289.56762695 C154.65893555 305.27549639 154.65893555 305.27549639 154.65893555 310.56762695 C153.41391002 315.13272054 151.98227053 317.5052222 148.3425293 320.4777832 C144.5394985 323.7209007 140.99110963 327.14961968 137.47143555 330.69262695 C136.92035629 331.24696915 136.36927704 331.80131134 135.80149841 332.37245178 C134.08537663 334.10227403 132.37172467 335.83450512 130.65893555 337.56762695 C118.02491093 350.35163151 118.02491093 350.35163151 113.69018555 354.03637695 C107.48459969 359.31828022 101.88392578 365.27742121 96.15893555 371.06762695 C82.96455934 384.41230525 82.96455934 384.41230525 76.77807617 389.67114258 C71.50851885 394.38703213 66.6280345 399.53953926 61.65893555 404.56762695 C45.77213256 420.64302398 45.77213256 420.64302398 40.65893555 424.56762695 C40.01480713 425.08478271 39.37067871 425.60193848 38.70703125 426.13476562 C34.20094823 428.25300361 30.02490566 427.93824895 25.1081543 427.8605957 C24.09421097 427.85635086 23.08026764 427.85210602 22.03559875 427.84773254 C18.80560455 427.83097554 15.57624033 427.79332817 12.34643555 427.75512695 C10.1530852 427.74007629 7.95972505 427.72638856 5.76635742 427.71411133 C0.39700282 427.68108182 -4.9719858 427.63091189 -10.34106445 427.56762695 C-10.45543384 373.89245833 -10.54357469 320.21730198 -10.5963911 266.54203554 C-10.60264486 260.20950136 -10.60911645 253.87696742 -10.61572266 247.54443359 C-10.61703421 246.28370571 -10.61834576 245.02297783 -10.61969706 243.72404607 C-10.64147142 223.29316304 -10.68090413 202.86235014 -10.72682843 182.43150876 C-10.77353656 161.47766905 -10.8013479 140.52386614 -10.81150693 119.56997651 C-10.81837779 106.63354236 -10.84010202 93.6973064 -10.88064679 80.76093324 C-10.90701548 71.89776064 -10.91507878 63.03469095 -10.90857134 54.17148194 C-10.9053593 49.05287793 -10.91038632 43.93462096 -10.93709183 38.81607819 C-10.96134541 34.1334446 -10.96270361 29.45139288 -10.94555893 24.76873305 C-10.94343864 23.07147003 -10.94984813 21.37417134 -10.96548036 19.67697898 C-10.98545588 17.3750669 -10.9747927 15.07527387 -10.9563036 12.77339649 C-10.9582022 11.49335926 -10.9601008 10.21332203 -10.96205693 8.89449579 C-9.82338476 2.79424001 -6.06642981 -0.07380085 0 0 Z " fill="#FFFFFF" transform="translate(1010.341064453125,1315.432373046875)"/>
<path d="M0 0 C3.47884669 2.00672894 5.7062659 4.11879769 7 8 C7.10326769 9.86289352 7.14798746 11.72924468 7.16062927 13.59495544 C7.17569771 15.34210091 7.17569771 15.34210091 7.19107056 17.12454224 C7.19690155 18.40400726 7.20273254 19.68347229 7.20874023 21.00170898 C7.21828079 22.36197652 7.22817204 23.72224164 7.23838806 25.08250427 C7.26976804 29.55367151 7.29004817 34.02485725 7.30859375 38.49609375 C7.31189107 39.25801568 7.31518839 40.01993762 7.31858563 40.80494809 C7.34938089 47.99856434 7.37607516 55.1921849 7.39300442 62.38584805 C7.41486987 71.56803071 7.4567471 80.74962557 7.52644199 89.93157333 C7.57383851 96.39715715 7.59795922 102.86258334 7.6052013 109.32833534 C7.61013659 113.18434312 7.62501077 117.03968842 7.6649456 120.89550591 C7.70210097 124.53109189 7.71012902 128.16564512 7.69693947 131.80138588 C7.69701822 133.752929 7.72668609 135.70440289 7.75762939 137.65570068 C7.68595041 146.45657711 5.49560127 152.48488159 1 160 C0.1685692 161.47746997 -0.66230899 162.95525132 -1.4921875 164.43359375 C-2.28204748 165.77084431 -3.07634312 167.10548459 -3.875 168.4375 C-4.3071582 169.16573975 -4.73931641 169.89397949 -5.18457031 170.64428711 C-7.66444482 174.81020175 -10.19131309 178.94444167 -12.75 183.0625 C-16.62260763 189.3043249 -20.3106487 195.64846012 -24 202 C-28.21359174 209.25333808 -32.47096445 216.45983564 -36.90234375 223.58203125 C-45.35476607 237.26111272 -53.33038374 251.24785912 -61.41845703 265.14379883 C-61.97388184 266.09794678 -62.52930664 267.05209473 -63.1015625 268.03515625 C-63.58963379 268.8744165 -64.07770508 269.71367676 -64.58056641 270.57836914 C-65.04897949 271.37750732 -65.51739258 272.17664551 -66 273 C-66.35064011 273.86323883 -66.70128021 274.72647766 -67.06254578 275.61587524 C-69 278 -69 278 -72.70158386 278.60127258 C-74.2739293 278.61578733 -75.84667385 278.60242573 -77.41870117 278.56762695 C-78.27745346 278.56835709 -79.13620575 278.56908722 -80.02098083 278.56983948 C-82.86228385 278.56635322 -85.70195182 278.52744384 -88.54296875 278.48828125 C-90.51165369 278.4789568 -92.48035022 278.47183895 -94.4490509 278.46684265 C-99.63284286 278.44774391 -104.81593529 278.3986181 -109.99945068 278.34332275 C-115.28794897 278.2921924 -120.57656021 278.26934189 -125.86523438 278.24414062 C-136.24379708 278.19050234 -146.62184039 278.10515457 -157 278 C-155.70421359 271.02771698 -154.0601974 264.2216762 -152.1484375 257.39453125 C-151.86134415 256.35769196 -151.57425079 255.32085266 -151.27845764 254.25259399 C-150.31387759 250.77165522 -149.34437025 247.29210756 -148.375 243.8125 C-147.68197513 241.31464487 -146.98936086 238.81667579 -146.29711914 236.31860352 C-145.1576511 232.20677504 -144.01789966 228.09502642 -142.87666321 223.98368835 C-139.52047868 211.89119222 -136.18205931 199.79383085 -132.84765625 187.6953125 C-132.31339725 185.75703373 -131.77913617 183.81875554 -131.24487305 181.88047791 C-130.17330178 177.99271222 -129.10179371 174.10492913 -128.03033447 170.21713257 C-127.766623 169.26025417 -127.50291153 168.30337578 -127.2312088 167.31750107 C-126.70482881 165.40751225 -126.17845646 163.49752132 -125.65209198 161.58752823 C-124.88124967 158.79051063 -124.11031698 155.99351795 -123.33935547 153.1965332 C-123.09016987 152.29235562 -122.84098427 151.38817804 -122.58424759 150.45660114 C-121.37083913 146.05491341 -120.15571324 141.65371308 -118.93676758 137.2535553 C-118.47587827 135.58945621 -118.01502146 133.92534813 -117.55419922 132.26123047 C-117.33331509 131.46369449 -117.11243095 130.6661585 -116.88485336 129.84445477 C-115.52502057 124.92561938 -114.19060672 120.00073552 -112.87158203 115.07080078 C-112.39810081 113.32199364 -112.39810081 113.32199364 -111.91505432 111.53785706 C-111.35366085 109.46256556 -110.80034971 107.38505914 -110.25767517 105.30479431 C-108.4728431 98.757359 -106.15613742 93.8790314 -101.265625 89.03515625 C-100.77320313 88.54466797 -100.28078125 88.05417969 -99.7734375 87.54882812 C-99.27070312 87.05833984 -98.76796875 86.56785156 -98.25 86.0625 C-97.76273438 85.57587891 -97.27546875 85.08925781 -96.7734375 84.58789062 C-94.07661195 81.92250475 -91.30824015 79.39215294 -88.421875 76.93359375 C-82.29759847 71.62340501 -76.69415259 65.76174852 -71 60 C-58.36670821 47.21673696 -58.36670821 47.21673696 -52.13671875 41.9140625 C-46.86304929 37.18993447 -41.97514105 32.03420152 -37 27 C-23.5566543 13.39706682 -23.5566543 13.39706682 -17.61645508 8.40380859 C-15.87605237 6.89235782 -14.2878256 5.28325045 -12.6875 3.625 C-8.69275052 -0.27684833 -5.45724124 -0.55497369 0 0 Z " fill="#FFFFFF" transform="translate(1385,1018)"/>
<path d="M0 0 C26.73 0 53.46 0 81 0 C79.32619975 4.18450064 77.58795747 7.50233247 75.25 11.3125 C71.05605556 18.19871178 66.98541246 25.15206783 62.9375 32.125 C59.37731159 38.25047356 55.82060709 44.36859304 52.0625 50.375 C47.30365688 57.99327814 42.89573965 65.82085131 38.45336914 73.62646484 C34.85293692 79.91980761 31.08913878 86.01451723 27 92 C26.12988281 93.35738281 26.12988281 93.35738281 25.2421875 94.7421875 C24.79101562 95.44601562 24.33984375 96.14984375 23.875 96.875 C23.41867187 97.59429688 22.96234375 98.31359375 22.4921875 99.0546875 C20.83820077 101.21093199 19.31137849 102.57289889 17 104 C10.26100989 104.86954711 10.26100989 104.86954711 6.04296875 101.9609375 C2.54016974 98.85247876 0.42832684 95.19264303 -1.8125 91.125 C-2.67077708 89.61005454 -3.53017651 88.09574446 -4.390625 86.58203125 C-4.82052734 85.81971191 -5.25042969 85.05739258 -5.69335938 84.27197266 C-6.9576652 82.07361129 -8.26896186 79.91436565 -9.609375 77.76171875 C-10.0221167 77.09575684 -10.4348584 76.42979492 -10.86010742 75.74365234 C-11.64000366 74.49106772 -12.4262648 73.24241511 -13.2199707 71.99853516 C-15.87615202 67.6870348 -17.49779048 64.01816647 -16.65119934 58.88517761 C-16.04691136 56.36435488 -15.363368 53.87843112 -14.6484375 51.38671875 C-14.39252838 50.45890091 -14.13661926 49.53108307 -13.87295532 48.57514954 C-13.05177584 45.60926825 -12.21355452 42.64850989 -11.375 39.6875 C-10.83353688 37.73923727 -10.293162 35.79067174 -9.75390625 33.84179688 C-6.60988396 22.52800425 -3.31384586 11.26707592 0 0 Z " fill="#FFFFFF" transform="translate(1222,1316)"/>
</svg>
